<?xml version="1.0" encoding="utf-8"?>
<!-- Generator: Adobe Illustrator 21.0.2, SVG Export Plug-In . SVG Version: 6.00 Build 0)  -->
<svg version="1.1" id="Layer_1" xmlns="http://www.w3.org/2000/svg" xmlns:xlink="http://www.w3.org/1999/xlink" x="0px" y="0px"
	 width="600px" height="374.4px" viewBox="0 0 600 374.4" style="enable-background:new 0 0 600 374.4;" xml:space="preserve">
<style type="text/css">
	.st0{fill:#1B9CD9;}
	.st1{fill:#FFFFFF;}
	.st2{fill:#75D9EF;}
	.st3{fill:#FDEA18;}
	.st4{fill:#C9EDFF;}
	.st5{fill:#43904C;}
	.st6{fill:#00983A;}
	.st7{fill:#1C68AF;}
	.st8{fill:#DBF3FF;}
	.st9{fill:#96DCFF;}
	.st10{fill:#FAFAFA;}
	.st11{fill:none;stroke:#1C68AF;stroke-width:2;stroke-miterlimit:10;}
	.st12{fill:#1DA4C2;}
	.st13{opacity:0.5;}
	.st14{opacity:0.5;fill:#1DA4C2;}
</style>
<g>
	<path class="st0" d="M544.9,124.5h-69.5c-11.3,0-20.4-9.1-20.4-20.4v-0.4c0-11.3,9.1-20.4,20.4-20.4h38.4
		c-45.7-49.2-111-79.9-183.4-79.9c-127,0-231.9,94.5-248.2,217.1h84.5c11.3,0,20.4,9.1,20.4,20.4v0.4c0,11.3-9.1,20.4-20.4,20.4
		H80.1c1.1,34.3,9,66.8,22.5,96.2h455.7c14.5-31.7,22.6-66.9,22.6-104.1C580.8,206.5,567.7,162.2,544.9,124.5z"/>
</g>
<path class="st0" d="M577.4,83.3H434.1V42.1h143.2c11.3,0,20.4,9.1,20.4,20.4v0.4C597.8,74.2,588.6,83.3,577.4,83.3z"/>
<path class="st0" d="M567.9,163.9H424.6v-41.2h143.2c11.3,0,20.4,9.1,20.4,20.4v0.4C588.3,154.8,579.1,163.9,567.9,163.9z"/>
<path class="st0" d="M22.2,260.8h143.2V302H22.2c-11.3,0-20.4-9.1-20.4-20.4v-0.4C1.8,269.9,11,260.8,22.2,260.8z"/>
<path class="st0" d="M70.1,179.2h143.2v41.2H70.1c-11.3,0-20.4-9.1-20.4-20.4v-0.4C49.7,188.4,58.8,179.2,70.1,179.2z"/>
<g>
	<rect x="438.6" y="131.5" class="st1" width="101.5" height="215.5"/>
	<rect x="444.8" y="137.6" class="st2" width="89.2" height="203.3"/>
	<rect x="446" y="278.4" class="st1" width="86.8" height="61.2"/>
	<rect x="444.3" y="201.3" class="st1" width="89.9" height="6.1"/>
	<rect x="444.3" y="271.1" class="st1" width="89.9" height="6.1"/>
	<g>
		<rect x="512.3" y="149.2" class="st3" width="15" height="52.1"/>
		<rect x="515.9" y="152.8" class="st4" width="7.6" height="24.5"/>
		<circle class="st4" cx="519.8" cy="193.6" r="4.3"/>
	</g>
	<g>
		<rect x="494" y="149.2" class="st5" width="15" height="52.1"/>
		<rect x="497.6" y="152.8" class="st4" width="7.6" height="24.5"/>
		<circle class="st4" cx="501.5" cy="193.6" r="4.3"/>
	</g>
	<g>
		<rect x="475.7" y="149.2" class="st3" width="15" height="52.1"/>
		<rect x="479.3" y="152.8" class="st4" width="7.6" height="24.5"/>
		<circle class="st4" cx="483.2" cy="193.6" r="4.3"/>
	</g>
	<rect x="450.9" y="233.8" class="st1" width="30.1" height="37.4"/>
	<rect x="454.6" y="237.4" class="st4" width="22.8" height="30"/>
	<rect x="488.4" y="260.8" class="st1" width="42.4" height="10.4"/>
	<rect x="492.2" y="260.8" class="st4" width="2.4" height="10.4"/>
	<rect x="524.6" y="260.8" class="st4" width="2.4" height="10.4"/>
	
		<rect x="504.1" y="237" transform="matrix(0.3886 -0.9214 0.9214 0.3886 96.5879 629.2044)" class="st1" width="36.5" height="9.7"/>
	
		<rect x="492.3" y="237.8" transform="matrix(0.3886 -0.9214 0.9214 0.3886 93.4724 620.4395)" class="st1" width="43.9" height="3.9"/>
</g>
<g>
	<rect x="211.7" y="130" class="st1" width="68.9" height="89.3"/>
	<rect x="215.4" y="133.7" class="st4" width="61.6" height="13.4"/>
	<g>
		<rect x="253.9" y="149.9" class="st4" width="10.2" height="10.2"/>
		<rect x="241.1" y="149.9" class="st4" width="10.2" height="10.2"/>
		<rect x="228.2" y="149.9" class="st4" width="10.2" height="10.2"/>
		<rect x="215.4" y="149.9" class="st4" width="10.2" height="10.2"/>
		<rect x="266.8" y="149.9" class="st4" width="10.2" height="10.2"/>
	</g>
	<g>
		<rect x="253.9" y="162.4" class="st4" width="10.2" height="10.2"/>
		<rect x="241.1" y="162.4" class="st4" width="10.2" height="10.2"/>
		<rect x="228.2" y="162.4" class="st4" width="10.2" height="10.2"/>
		<rect x="215.4" y="162.4" class="st4" width="10.2" height="10.2"/>
		<rect x="266.8" y="162.4" class="st4" width="10.2" height="10.2"/>
	</g>
	<g>
		<rect x="253.9" y="174.8" class="st4" width="10.2" height="10.2"/>
		<rect x="241.1" y="174.8" class="st4" width="10.2" height="10.2"/>
		<rect x="228.2" y="174.8" class="st4" width="10.2" height="10.2"/>
		<rect x="215.4" y="174.8" class="st4" width="10.2" height="10.2"/>
		<rect x="266.8" y="174.8" class="st4" width="10.2" height="10.2"/>
	</g>
	<g>
		<rect x="253.9" y="187.3" class="st4" width="10.2" height="10.2"/>
		<rect x="241.1" y="187.3" class="st4" width="10.2" height="10.2"/>
		<rect x="228.2" y="187.3" class="st4" width="10.2" height="10.2"/>
		<rect x="215.4" y="187.3" class="st4" width="10.2" height="10.2"/>
		<rect x="266.8" y="187.3" class="st4" width="10.2" height="10.2"/>
	</g>
	<rect x="215.4" y="203.6" class="st4" width="25.7" height="4.5"/>
	<rect x="244" y="203.6" class="st4" width="9.6" height="4.5"/>
</g>
<g>
	<rect x="344.6" y="114.8" class="st1" width="68.9" height="89.3"/>
	<rect x="348.2" y="188.3" class="st4" width="25.7" height="4.5"/>
	<rect x="376.9" y="188.3" class="st4" width="9.6" height="4.5"/>
	<rect x="349.9" y="163.6" class="st4" width="11.9" height="17.5"/>
	<rect x="365.4" y="157.1" class="st4" width="11.9" height="24"/>
	<rect x="380.9" y="149.2" class="st4" width="11.9" height="32"/>
	<rect x="396.3" y="153.9" class="st4" width="11.9" height="27.2"/>
	<rect x="348.2" y="118.5" class="st4" width="61.6" height="13.4"/>
</g>
<g>
	<rect x="104.1" y="293.7" class="st3" width="15" height="52.1"/>
	<rect x="107.8" y="297.4" class="st4" width="7.6" height="24.5"/>
	<circle class="st4" cx="111.6" cy="338.1" r="4.3"/>
</g>
<g>
	<rect x="122.9" y="293.7" class="st6" width="15" height="52.1"/>
	<rect x="126.6" y="297.4" class="st4" width="7.6" height="24.5"/>
	<circle class="st4" cx="130.4" cy="338.1" r="4.3"/>
</g>
<g>
	<rect x="141.7" y="293.7" class="st3" width="15" height="52.1"/>
	<rect x="145.3" y="297.4" class="st4" width="7.6" height="24.5"/>
	<circle class="st4" cx="149.2" cy="338.1" r="4.3"/>
</g>
<circle class="st1" cx="172.6" cy="266.1" r="3.2"/>
<circle class="st1" cx="162.8" cy="277.1" r="3.2"/>
<circle class="st1" cx="246.2" cy="235.7" r="3.2"/>
<circle class="st1" cx="247" cy="243.9" r="3.2"/>
<circle class="st1" cx="277" cy="235.7" r="3.2"/>
<circle class="st1" cx="273.8" cy="253.8" r="3.2"/>
<circle class="st1" cx="123.4" cy="279" r="3.2"/>
<g>
	<polygon class="st1" points="152.7,279.6 122.9,279.6 122.9,278.4 152.1,278.4 163,265.4 171.2,265.4 171.2,266.6 163.6,266.6 	"/>
</g>
<polygon class="st1" points="369.7,224.4 365.9,216.8 362.1,224.4 363.6,224.4 363.6,257.8 368.2,257.8 368.2,224.4 "/>
<polygon class="st1" points="382.8,224.4 379,216.8 375.3,224.4 376.7,224.4 376.7,257.8 381.4,257.8 381.4,224.4 "/>
<polygon class="st1" points="396,224.4 392.2,216.8 388.4,224.4 389.9,224.4 389.9,257.8 394.5,257.8 394.5,224.4 "/>
<g>
	<polygon class="st1" points="162.9,277.6 161.9,276.8 165,272.8 189.9,272.8 189.9,274 165.6,274 	"/>
</g>
<g>
	<rect x="246.2" y="235.1" class="st1" width="31.7" height="1.2"/>
</g>
<g>
	<polygon class="st1" points="273.3,254.1 265.4,244.5 247.4,244.5 247.4,243.3 266,243.3 274.3,253.4 	"/>
</g>
<g>
	<g>
		<path class="st1" d="M276.4,298.6c2.8,0,5.5-1.4,7-4l28.5-47.9c2.3-3.9,1-8.8-2.8-11.1c-3.9-2.3-8.8-1-11.1,2.8l-28.5,47.9
			c-2.3,3.9-1,8.8,2.8,11.1C273.6,298.2,275,298.6,276.4,298.6z"/>
		<path class="st7" d="M276.4,299.8c-1.7,0-3.3-0.5-4.8-1.3c-2.1-1.3-3.7-3.3-4.3-5.7c-0.6-2.4-0.3-4.9,1-7.1l28.5-47.9
			c1.7-2.8,4.8-4.6,8-4.6c1.7,0,3.3,0.5,4.8,1.3c4.4,2.6,5.9,8.4,3.3,12.8l-28.5,47.9C282.8,298,279.7,299.8,276.4,299.8z
			 M304.9,235.6c-2.4,0-4.7,1.3-5.9,3.4l-28.5,47.9c-0.9,1.6-1.2,3.4-0.8,5.2c0.5,1.8,1.6,3.3,3.2,4.2c1.1,0.6,2.3,1,3.5,1
			c2.4,0,4.7-1.3,5.9-3.4l28.5-47.9c1.9-3.3,0.9-7.5-2.4-9.5C307.4,235.9,306.2,235.6,304.9,235.6z"/>
	</g>
	<g>
		<path class="st1" d="M365.5,297.7c-2.8,0-5.5-1.4-7-4L330,245.8c-2.3-3.9-1-8.8,2.8-11.1c3.9-2.3,8.8-1,11.1,2.8l28.5,47.9
			c2.3,3.9,1,8.8-2.8,11.1C368.3,297.3,366.9,297.7,365.5,297.7z"/>
		<path class="st7" d="M365.5,298.9c-3.3,0-6.4-1.8-8-4.6L329,246.4c-1.3-2.1-1.6-4.7-1-7.1c0.6-2.4,2.1-4.5,4.3-5.7
			c1.4-0.9,3.1-1.3,4.8-1.3c3.3,0,6.4,1.8,8,4.6l28.5,47.9c1.3,2.1,1.6,4.7,1,7.1c-0.6,2.4-2.1,4.5-4.3,5.7
			C368.8,298.4,367.1,298.9,365.5,298.9z M337,234.7c-1.2,0-2.5,0.3-3.5,1c-1.6,0.9-2.7,2.4-3.2,4.2c-0.5,1.8-0.2,3.6,0.8,5.2
			l28.5,47.9c1.2,2.1,3.5,3.4,5.9,3.4c1.2,0,2.5-0.3,3.5-1c1.6-0.9,2.7-2.4,3.2-4.2c0.5-1.8,0.2-3.6-0.8-5.2l-28.5-47.9
			C341.7,236,339.4,234.7,337,234.7z"/>
	</g>
	<polygon class="st7" points="319.3,347.4 318.1,319.1 298.3,319.9 299.5,347.4 	"/>
	<g>
		<path class="st1" d="M302.9,335.9l-0.4-2.4c4.6-0.7,4.9-4.4,4.9-4.4l2.4,0.2C309.7,331.1,308,335,302.9,335.9z"/>
	</g>
	<polygon class="st7" points="344.2,347.4 345.3,319.9 325.5,319.1 324.3,347.4 	"/>
	<g>
		<path class="st1" d="M340.8,335.9c-5.1-0.8-6.8-4.7-7-6.6l2.4-0.2c0,0.2,0.4,3.7,4.9,4.5L340.8,335.9z"/>
	</g>
	<ellipse class="st7" cx="320.8" cy="321.5" rx="20.7" ry="18.4"/>
	<g>
		<path class="st1" d="M327.3,229h-12.5c-11.3,0-20.5,9.2-20.5,20.5v80.7h53.5v-80.7C347.8,238.2,338.7,229,327.3,229z"/>
		<path class="st7" d="M349.1,331.4h-55.9v-81.9c0-12,9.7-21.7,21.7-21.7h12.5c12,0,21.7,9.7,21.7,21.7V331.4z M295.6,329h51v-79.5
			c0-10.6-8.6-19.3-19.3-19.3h-12.5c-10.6,0-19.3,8.6-19.3,19.3V329z"/>
	</g>
	<path class="st7" d="M342.8,193.8c0,0,7.2-12.1,4.4-17.5c-2.5-4.7-5.6-3-6.5-3.7c-0.8-0.6,2.7-3.5-4.6-10.3
		c-7.4-6.9-31.8-6.3-38-1.2c-4.7,3.9-0.4,9-2.3,13.3c-1.1,2.6-5.9,4.1-2.6,10.3c2.1,4-3.7,8.1,5,11.7
		C306.9,200,342.8,193.8,342.8,193.8z"/>
	<g>
		<rect x="313.2" y="211.8" class="st1" width="15.8" height="27.9"/>
		<path class="st7" d="M330.2,240.9H312v-30.3h18.2V240.9z M314.5,238.4h13.3V213h-13.3V238.4z"/>
	</g>
	<path class="st7" d="M313.2,226.2c2.2,0.8,4.6,1.2,7,1.2h0.4c3,0,5.8-0.6,8.3-1.7v-14h-15.8V226.2z"/>
	<g>
		<path class="st1" d="M341.4,187.1C341.4,187.1,341.4,187.1,341.4,187.1c-0.7-10.8-9.7-19.4-20.7-19.4h-0.4c-11,0-20,8.6-20.7,19.4
			c0,0,0,0,0,0c-4,0-7.3,3.3-7.3,7.3c0,4,3.3,7.3,7.3,7.3v2.7c0,11.4,9.3,20.7,20.7,20.7h0.4c11.4,0,20.7-9.3,20.7-20.7v-2.7
			c4,0,7.3-3.3,7.3-7.3C348.7,190.3,345.4,187.1,341.4,187.1z"/>
		<path class="st7" d="M320.7,226.3h-0.4c-12.1,0-21.9-9.8-21.9-21.9v-1.6c-4.1-0.6-7.3-4.1-7.3-8.4c0-4.3,3.2-7.9,7.4-8.4
			c1.2-11,10.6-19.5,21.8-19.5h0.4c11.2,0,20.6,8.5,21.8,19.5c4.2,0.5,7.4,4.1,7.4,8.4c0,4.3-3.2,7.8-7.3,8.4v1.6
			C342.6,216.4,332.8,226.3,320.7,226.3z M299.6,188.3c-3.4,0-6.1,2.7-6.1,6c0,3.3,2.7,6.1,6.1,6.1h1.2v4c0,10.7,8.7,19.5,19.5,19.5
			h0.4c10.7,0,19.5-8.7,19.5-19.5v-4h1.2c3.3,0,6.1-2.7,6.1-6.1c0-3.3-2.7-6.1-6.1-6.1h-1.1l-0.1-1.1c-0.6-10.2-9.2-18.3-19.4-18.3
			h-0.4c-10.3,0-18.8,8-19.4,18.3l-0.1,1.1H299.6C299.6,188.3,299.6,188.3,299.6,188.3z"/>
	</g>
	<g>
		<path class="st7" d="M333.2,189.4c-3.7-3.5-8.5-0.5-8.8-0.4l-1.3-2.1c2.3-1.4,7.6-3.1,11.7,0.7L333.2,189.4z"/>
	</g>
	<g>
		<path class="st7" d="M307.5,189.5l-1.8-1.7c3.9-4.1,9.3-2.6,11.6-1.2l-1.2,2.1C315.9,188.6,311,185.8,307.5,189.5z"/>
	</g>
	<path class="st7" d="M301.7,202.2c2.9,1.7-1.8-19.4,1.6-21.9c0,0,11,6.3,33.2-2.2c3.3,12.5,0.5,24.2,3.2,24.1
		c2.7-0.1,5.4-14.8,2-23.1c-3.3-8.3-12.1-15.4-25-13.8c-12.9,1.5-18.7,2.7-18.7,12C298.1,181.5,296.5,199.1,301.7,202.2z"/>
	<g>
		<path class="st7" d="M320.8,205c-4.2,0-5.5-3.2-5.6-3.3l2.3-0.9c0.1,0.2,0.8,1.7,3,1.8c0.5-0.6,1.3-1.3,2.4-1.2
			c1.7,0.1,2.6,1.7,2.9,2.6l-2.3,0.8c-0.1-0.3-0.4-0.9-0.8-0.9c-0.1,0-0.4,0.4-0.5,0.6l-0.3,0.6l-0.7,0C321,205,320.9,205,320.8,205
			z"/>
	</g>
	<g>
		<path class="st7" d="M296.3,194.4l-2.2-1.1c0.1-0.2,1.2-2.2,3.2-2.6c0.8-0.1,2-0.1,3.4,1.1l-1.6,1.8c-0.5-0.4-0.9-0.6-1.3-0.6
			C297.1,193.2,296.4,194.1,296.3,194.4z"/>
	</g>
	<g>
		<path class="st7" d="M344.6,194.4c-0.2-0.3-0.8-1.2-1.5-1.3c-0.4-0.1-0.8,0.1-1.3,0.6l-1.6-1.8c1.4-1.2,2.6-1.3,3.4-1.1
			c2,0.4,3.1,2.4,3.2,2.6L344.6,194.4z"/>
	</g>
	<g>
		<path class="st1" d="M313,229.7c0,0,0.3,7.2,8.9,10.2l-8.7,7.8c0,0-4.8-7-3.9-13.6L313,229.7z"/>
		<path class="st7" d="M313,249.6l-0.8-1.1c-0.2-0.3-5.1-7.4-4.1-14.5l0.1-0.3l5.9-7.1l0.1,3.2c0,0.3,0.4,6.4,8.1,9.1l2,0.7
			L313,249.6z M310.5,234.6c-0.5,4.5,1.7,9.1,3,11.2l6.2-5.5c-4.6-2.2-6.5-5.6-7.3-7.9L310.5,234.6z"/>
	</g>
	<g>
		<path class="st1" d="M329.2,229.7c0,0-0.3,7.2-8.9,10.2l8.7,7.8c0,0,4.8-7,3.9-13.6L329.2,229.7z"/>
		<path class="st7" d="M329.3,249.6l-11.3-10.1l2-0.7c7.8-2.7,8.1-9,8.1-9.1l0.1-3.2l5.9,7.1l0.1,0.3c1,7.1-3.9,14.2-4.1,14.5
			L329.3,249.6z M322.6,240.3l6.2,5.5c1.2-2.1,3.5-6.8,3-11.2l-1.8-2.2C329.1,234.8,327.2,238.2,322.6,240.3z"/>
	</g>
	<path class="st7" d="M319.6,214.4c0.4,1.1,1.6,1.8,2.8,1.5c1.2-0.3,1.9-1.4,1.8-2.6L319.6,214.4z"/>
	<g>
		<path class="st7" d="M317.5,193.8H315c0-1.4-1.1-2.5-2.5-2.5c-1.4,0-2.5,1.1-2.5,2.5h-2.4c0-2.7,2.2-4.9,4.9-4.9
			C315.3,188.8,317.5,191.1,317.5,193.8z"/>
	</g>
	<g>
		<path class="st7" d="M333.9,193.8h-2.4c0-1.4-1.1-2.5-2.5-2.5c-1.4,0-2.5,1.1-2.5,2.5h-2.4c0-2.7,2.2-4.9,4.9-4.9
			C331.7,188.8,333.9,191.1,333.9,193.8z"/>
	</g>
	<g>
		<path class="st7" d="M321.1,212.1c-6.3,0-10.7-4-10.8-4l1.7-1.8l-0.8,0.9l0.8-0.9c0.4,0.3,9.3,8.3,19.7-1.4l1.7,1.8
			C328.9,210.8,324.7,212.1,321.1,212.1z"/>
	</g>
	<g>
		<path class="st1" d="M349,331.1c0,0-2.2,2.7-2.7,4.1c-0.5,1.4-0.7,2.9-1.7,3.6c-1.1,0.7-4,2.3-4,2.3s-3.3,4.1-4.3,4.3
			c-1,0.1-1.2-0.4-1.2-0.4l2.7-3.3c0,0-2.5,2.9-3.3,3.5c-0.7,0.6-2.5,0.4-3.4-0.5c-0.9-0.9,2.2-5.2,2.2-5.2s-2.5,4.8-3,5.2
			c-0.4,0.5-4.2,0.1-4.5-1c-0.3-1,2.9-6,2.9-6l-3.2,6.2c0,0-3.1,0.4-3.8-1.5c-0.7-1.9,2.6-6.7,2.6-6.7s-2.9,6.5-3.3,7
			c-0.4,0.5-2.6,0.6-3.1-1.3c-0.5-1.9,2.9-8.8,3.8-10.2c0.9-1.4,6-1.9,9.2-2.3c3.2-0.4,4.7-0.7,4.7-0.7l2.9-5.2l12.5,0.8L349,331.1z
			"/>
		<path class="st7" d="M333.3,346.7c-0.9,0-1.9-0.3-2.7-0.8c-0.3,0.1-0.8,0.2-1.3,0.2c-0.1,0-2.5,0-3.8-0.9c-0.2,0-0.4,0-0.7,0
			c-1.5,0-2.7-0.4-3.5-1.2c-0.5,0.2-1,0.3-1.3,0.3c-1.6,0-2.9-1-3.3-2.5c-0.6-2.7,3.6-10.5,4-11.2c1.1-1.7,4.7-2.2,9.6-2.8l0.5-0.1
			c2-0.2,3.4-0.4,4.1-0.5l3-5.4l14.8,0.9l-2.6,9l-0.2,0.2c-0.8,1-2.2,2.9-2.5,3.8c-0.1,0.3-0.2,0.7-0.4,1.1
			c-0.3,1.1-0.7,2.3-1.9,3.1c-1,0.6-3.1,1.8-3.8,2.2c-3.5,4.3-4.5,4.5-4.9,4.5c-0.7,0.1-1.2,0-1.6-0.2
			C334.5,346.5,333.9,346.7,333.3,346.7z M332.2,343.9c0.3,0.2,0.7,0.3,1.1,0.3c0.2,0,0.4,0,0.4-0.1c0.4-0.4,2.1-2.2,3.1-3.3
			l1.4,1.1c0.5-0.6,1-1.2,1.5-1.7l0.2-0.2l0.2-0.1c0,0,2.9-1.5,3.9-2.2c0.4-0.3,0.6-1,0.9-1.7c0.1-0.4,0.3-0.8,0.4-1.3
			c0.5-1.3,2.2-3.5,2.7-4.2l1.6-5.6l-10.2-0.6l-2.8,5.1l-0.6,0.1c-0.1,0-1.5,0.3-4.8,0.7l-0.5,0.1c-2,0.2-7.2,0.8-7.9,1.7
			c-1.2,1.9-3.9,8.1-3.6,9.3c0.1,0.4,0.4,0.6,0.9,0.6c0,0,0.1,0,0.1,0c0.1-0.1,0.2-0.3,0.3-0.7c0.4-2.4,2.6-5.7,2.8-6.1l2.1,1.2
			c-0.1,0.1-1.6,3.5-2.6,5.6c0,0.1,0,0.2,0,0.2c0.2,0.5,1,0.7,1.8,0.7c0.5-1.8,2.4-4.7,3-5.7l2.1,1.2l-2.6,5
			c0.5,0.2,1.3,0.3,2.1,0.3c0.1,0,0.2,0,0.3,0c0.1-0.1,0.1-0.2,0.2-0.4c0.5-1.7,2.3-4.2,2.5-4.5l2.1,1.3
			C334.4,340.1,333.1,342.4,332.2,343.9z"/>
	</g>
	<g>
		<path class="st2" d="M369.5,282.5c-3.9-2.3-8.9-1-11.1,2.9l-24.5,41.5l16.5,7.3l22.1-40.6C374.7,289.8,373.4,284.8,369.5,282.5z"
			/>
		<path class="st7" d="M350.9,335.8l-18.8-8.3l25.2-42.7c1.7-2.9,4.8-4.6,8.1-4.6c1.6,0,3.3,0.4,4.7,1.3c4.5,2.6,6,8.3,3.4,12.8
			L350.9,335.8z M335.6,326.4l14.2,6.3l21.5-39.6c1.9-3.3,0.8-7.6-2.5-9.5c-1.1-0.6-2.3-0.9-3.5-0.9c-2.5,0-4.7,1.3-6,3.4
			L335.6,326.4z"/>
	</g>
	<g>
		<path class="st1" d="M292.8,332c0,0,2.2,2.7,2.7,4.1c0.5,1.4,0.7,2.9,1.7,3.6c1.1,0.7,4,2.3,4,2.3s3.3,4.1,4.3,4.3
			c1,0.1,1.2-0.4,1.2-0.4l-2.7-3.3c0,0,2.5,2.9,3.3,3.5c0.7,0.6,2.5,0.4,3.4-0.5c0.9-0.9-2.2-5.2-2.2-5.2s2.5,4.8,3,5.2
			c0.4,0.5,4.2,0.1,4.5-1c0.3-1-2.9-6-2.9-6l3.2,6.2c0,0,3.1,0.4,3.8-1.5c0.7-1.9-2.6-6.7-2.6-6.7s2.9,6.5,3.3,7
			c0.4,0.5,2.6,0.6,3.1-1.3c0.5-1.9-2.9-8.8-3.8-10.2c-0.9-1.4-6-1.9-9.2-2.3c-3.2-0.4-4.7-0.7-4.7-0.7l-2.9-5.2l-12.5,0.8
			L292.8,332z"/>
		<path class="st7" d="M308.5,347.5c-0.6,0-1.1-0.1-1.6-0.4c-0.3,0.1-0.7,0.2-1.1,0.2h0c-0.1,0-0.3,0-0.5,0
			c-0.4-0.1-1.4-0.2-4.9-4.5c-0.7-0.4-2.9-1.6-3.8-2.2c-1.2-0.8-1.5-2-1.9-3.1c-0.1-0.4-0.2-0.7-0.4-1.1c-0.3-0.9-1.7-2.8-2.5-3.8
			l-0.2-0.2l-2.6-9l14.8-0.9l3,5.4c0.7,0.1,2,0.3,4.1,0.5l0.5,0.1c4.9,0.6,8.5,1.1,9.6,2.8c0.4,0.6,4.6,8.5,4,11.2
			c-0.4,1.5-1.6,2.5-3.3,2.5c-0.3,0-0.8,0-1.3-0.3c-0.8,0.8-2,1.2-3.5,1.2c-0.3,0-0.5,0-0.7,0c-1.3,0.9-3.7,0.9-3.8,0.9
			c-0.5,0-1-0.1-1.3-0.2C310.4,347.2,309.5,347.5,308.5,347.5z M305,341.7c1,1.1,2.7,3,3.1,3.3c0,0,0.1,0,0.4,0
			c0.4,0,0.8-0.1,1.1-0.3c-0.9-1.5-2.1-3.9-2.2-4l2.1-1.3c0.2,0.3,2,2.8,2.5,4.5c0.1,0.1,0.2,0.3,0.2,0.4c0.1,0,0.1,0,0.3,0
			c0.8,0,1.6-0.2,2.1-0.3l-2.6-5l2.1-1.2c0.6,0.9,2.5,3.9,3,5.7c0.8,0,1.6-0.2,1.8-0.7c0,0,0-0.1,0-0.2c-1-2-2.5-5.4-2.6-5.6
			l2.1-1.2c0.3,0.4,2.4,3.7,2.8,6.1c0.2,0.3,0.3,0.5,0.3,0.7c0,0,0.1,0,0.1,0c0.5,0,0.8-0.2,0.9-0.6c0.3-1.2-2.5-7.4-3.6-9.3
			c-0.7-0.9-5.9-1.5-7.8-1.7l-0.5-0.1c-3.3-0.4-4.7-0.7-4.8-0.7l-0.6-0.1l-2.8-5.1l-10.2,0.6l1.6,5.6c0.5,0.7,2.2,2.9,2.7,4.2
			c0.2,0.4,0.3,0.8,0.4,1.3c0.2,0.8,0.4,1.5,0.9,1.7c1,0.7,3.9,2.2,3.9,2.2l0.2,0.1l0.2,0.2c0.5,0.6,1,1.2,1.5,1.7L305,341.7z"/>
	</g>
	<g>
		<path class="st2" d="M272.4,283.4c3.9-2.3,8.9-1,11.1,2.9l24.5,41.5l-16.5,7.3l-22.1-40.6C267.2,290.6,268.5,285.7,272.4,283.4z"
			/>
		<path class="st7" d="M291,336.7l-22.6-41.6c-2.6-4.4-1.1-10.2,3.4-12.8c1.4-0.8,3.1-1.3,4.7-1.3c3.3,0,6.4,1.8,8.1,4.6l25.2,42.7
			L291,336.7z M276.4,283.5c-1.2,0-2.4,0.3-3.5,0.9c-3.3,1.9-4.4,6.2-2.5,9.4l21.6,39.6l14.2-6.3L282.4,287
			C281.2,284.8,278.9,283.5,276.4,283.5z"/>
	</g>
</g>
<g>
	<g>
		<path class="st3" d="M239.7,347.3V334c0-13.6-11-24.6-24.6-24.6h-0.5c-13.6,0-24.6,11-24.6,24.6v13.3H239.7z"/>
		<path class="st7" d="M240.9,348.5h-52.2V334c0-14.3,11.6-25.8,25.8-25.8h0.5c14.3,0,25.8,11.6,25.8,25.8V348.5z M191.1,346h47.3
			v-12c0-12.9-10.5-23.4-23.4-23.4h-0.5c-12.9,0-23.4,10.5-23.4,23.4V346z"/>
	</g>
	<g>
		<path class="st3" d="M233.4,314.2L233,281c5.2-0.3,9.2-4.6,9.1-9.8l0-0.2c-0.1-5.2-4.3-9.3-9.5-9.4l0-0.8
			c-0.2-11.7-9.9-21-21.7-20.8c0,0-19,0.4-18.6,21.1l7.9,53.1H233.4z"/>
		<path class="st7" d="M234.6,315.4h-35.5l-8.1-54.3c-0.4-21.7,19.6-22.3,19.8-22.3l0.5,0c12,0,22,9.7,22.4,21.7
			c5.3,0.6,9.4,5.1,9.5,10.5l0,0.2c0.1,5.5-3.8,10.1-9.1,10.9L234.6,315.4z M201.3,313h30.9l-0.4-33.2l1.2-0.1c4.5-0.2,8-4,7.9-8.5
			l0-0.2c-0.1-4.5-3.7-8.2-8.3-8.2l-1.2,0l0-2c-0.2-10.8-9.2-19.6-20-19.6l-0.4,0c-0.7,0-17.8,0.6-17.4,19.8L201.3,313z"/>
	</g>
	<g>
		<path class="st4" d="M229.4,169.4c4.4-4.9,11.8-2.3,14.1,2.8c2.7,6-3.9,13.6-3,16.6c0.9,3,3.2,14.5-7.8,16.9
			c-8.4,1.8-6.8-1.8-7.5-10S225,174.3,229.4,169.4z"/>
		<path class="st7" d="M229.2,207.4c-4.7,0-4.9-3.5-5-8c0-1.1-0.1-2.3-0.2-3.7c-0.3-3.4-1.2-20.7,4.5-27.2c1.8-2,4.1-3,6.7-3
			c4,0,7.8,2.5,9.5,6.2c1.8,4.1-0.1,8.7-1.6,12.3c-0.7,1.7-1.6,3.7-1.3,4.5c0.5,1.8,2,8.2-0.9,13.1c-1.6,2.7-4.2,4.5-7.8,5.2
			C231.4,207.2,230.2,207.4,229.2,207.4z M235.2,168c-1.3,0-3.2,0.4-4.9,2.2c-3.7,4.1-4.6,15.7-3.9,25.3c0.1,1.4,0.1,2.7,0.2,3.8
			c0.2,5,0.4,5.6,2.6,5.6c0.8,0,1.9-0.1,3.2-0.4c2.9-0.6,5-2,6.3-4.1c2.5-4.2,1-10.1,0.6-11.2c-0.5-1.6,0.4-3.6,1.4-6.1
			c1.4-3.2,3.1-7.2,1.6-10.4C241.2,169.9,238.2,168,235.2,168z"/>
	</g>
	<g>
		<path class="st1" d="M220.2,243.2l-0.5-22.8l-16.6,0.3v23.4c0,1,21.4,17.3,22.1,16.9C227.8,259.3,226.1,248.9,220.2,243.2z"/>
		<path class="st7" d="M225.2,262.2c-0.5,0-1.4,0-12.3-8.3c-11-8.4-11-9.1-11-9.8v-24.6l19.1-0.4l0.5,23.5
			c4.3,4.5,6.5,11.5,6.1,15.8c-0.2,1.7-0.7,2.9-1.6,3.5l-0.3,0.2L225.2,262.2z M204.3,243.7c2,2.2,16.9,13.6,20.5,15.7
			c0.1-0.3,0.2-0.7,0.3-1.2c0.4-3.8-1.7-10.3-5.7-14.2l-0.4-0.4l-0.4-22.1l-14.2,0.3V243.7z"/>
	</g>
	<path class="st7" d="M203.4,234.5c3.3,1.8,7.1,2.7,11.1,2.6l0.5,0c1.8,0,3.5-0.3,5.2-0.7l-0.3-16l-16.6,0.3L203.4,234.5z"/>
	<g>
		<path class="st1" d="M214.9,232.8l-0.5,0c-12.5,0.3-22.9-9.7-23.1-22.2l-0.4-18.1c-0.3-12.5,9.7-22.9,22.2-23.1l0.5,0
			c12.5-0.3,22.9,9.7,23.1,22.2l0.4,18.1C237.3,222.2,227.4,232.6,214.9,232.8z"/>
		<path class="st7" d="M213.9,234.1c-12.9,0-23.6-10.5-23.9-23.4l-0.4-18.1c-0.1-6.4,2.2-12.4,6.7-17c4.4-4.6,10.4-7.2,16.7-7.3l1,0
			c12.9,0,23.6,10.5,23.9,23.4l0.4,18.1c0.1,6.4-2.2,12.4-6.6,17c-4.4,4.6-10.4,7.2-16.7,7.3L213.9,234.1z M214,170.6l-0.9,0
			c-5.7,0.1-11.1,2.5-15,6.6c-4,4.1-6.1,9.6-6,15.3l0.4,18.1c0.2,11.6,9.8,21,21.4,21l0.9,0c5.7-0.1,11.1-2.5,15-6.6
			c4-4.1,6.1-9.6,6-15.3l-0.4-18.1C235.2,180.1,225.6,170.6,214,170.6z"/>
	</g>
	<g>
		<path class="st7" d="M215.4,192.8l-1.8-1.7c4-4.4,9.7-2.9,12.2-1.5l-1.2,2.1l0.6-1.1l-0.6,1.1
			C224.3,191.7,219.1,188.8,215.4,192.8z"/>
	</g>
	<g>
		<path class="st7" d="M231.7,192.5l-1.8-1.7c2.2-2.4,5.1-3.3,8.5-2.7l-0.4,2.4C235.4,190,233.3,190.7,231.7,192.5z"/>
	</g>
	<g>
		<path class="st7" d="M228.8,208.5c-0.1,0-0.1,0-0.2,0l0.1-2.4c3,0.1,3.8-2,3.8-2l2.3,0.9C234.6,205.1,233.2,208.5,228.8,208.5z"/>
	</g>
	<g>
		<path class="st7" d="M224.8,217.3c-4.1,0-7.6-1.4-7.8-1.5l0.9-2.3c0.1,0,10,4,14.9-2.1l1.9,1.5C232,216.4,228.2,217.3,224.8,217.3
			z"/>
	</g>
	<g>
		<path class="st7" d="M217.9,283.6l-0.1-2.4c5.1-0.1,9.2-4.3,9.1-9.4c-0.1-5.1-4.3-9.2-9.4-9.1l0-2.4c6.4-0.1,11.8,5,11.9,11.4
			C229.5,278.1,224.3,283.5,217.9,283.6z"/>
	</g>
	<g>
		<path class="st7" d="M217.9,200.8l-2.4-0.5c0.4-2.1,2.1-3.6,4.2-3.8c2-0.2,3.9,0.9,4.8,2.8l-2.2,1c-0.4-0.9-1.3-1.4-2.3-1.3
			C219,199.1,218.1,199.8,217.9,200.8z"/>
	</g>
	<g>
		<path class="st7" d="M231.3,199.5l-2.4-0.5c0.4-2.1,2.1-3.6,4.2-3.8c2-0.2,3.9,0.9,4.8,2.8l-2.2,1c-0.4-0.9-1.3-1.4-2.3-1.3
			C232.4,197.8,231.5,198.5,231.3,199.5z"/>
	</g>
	<g>
		<path class="st4" d="M234.6,160.1c-7.7-2.1-7.1,4.6-12,3.9c-4.2-0.6-7.8-3.1-11.1-3.1c-6.7,0.1-5.9,4.1-11,3.6
			c-15-1.5-31.6,17-21.6,38.2c6,12.8,7.7,17.3,3.6,24c-3.4,5.7,20.5,3.1,20.5,3.1c-4.8-2.6-8.5-6.8-10.4-12c6.6,1.7,10.4-1.1,10-4.9
			c-0.1-0.6-0.1-1.3-0.2-2.1c0,0,0,0,0,0c-6.6,2.3-12.4-7.9-9.8-12.7c2.7-4.8,10.7,0.4,12.4,3.1c0.7,1.1,1.6,2.9,1.1,5.7
			c4.2-1,3.9-5.9,0.6-9.9C242.6,192.5,242.5,162.3,234.6,160.1z"/>
		<path class="st7" d="M192.5,231.7c-8.5,0-10.4-1.4-11.1-2.7c-0.3-0.6-0.6-1.6,0.2-2.9c3.6-5.9,2.5-9.6-3.7-22.8
			c-4.5-9.7-4.1-20,1.1-28.2c4.6-7.3,12.3-11.8,19.9-11.8c0.6,0,1.2,0,1.8,0.1c1.9,0.2,2.7-0.4,3.9-1.3c1.4-1,3.1-2.3,6.9-2.4l0.2,0
			c1.9,0,3.9,0.7,5.9,1.5c1.7,0.6,3.4,1.3,5.3,1.6c1.4,0.2,2.1-0.4,3.3-1.6c1.2-1.2,2.8-2.8,5.8-2.8c0.9,0,1.9,0.1,3.1,0.5
			c3.4,0.9,5.5,5.7,5.1,11.6c-0.7,10.6-9.3,24-31.1,27.6c1.4,2.4,1.9,4.9,1.3,6.9c-0.6,1.6-1.9,2.8-3.7,3.2l-1.8,0.4l0.4-1.9
			c0.5-2.4-0.5-4-1-4.8c-0.9-1.5-4.9-4.5-7.9-4.5c-1.1,0-1.9,0.4-2.4,1.3c-0.9,1.7-0.6,4.5,0.9,7.1c1.9,3.2,4.7,4.7,7.3,3.9l0.2-0.1
			l1.4-0.4l0.1,1.4c0.1,0.8,0.1,1.5,0.2,2.1c0.2,1.6-0.3,3.2-1.4,4.4c-1.6,1.8-4.4,2.6-7.8,2.3c2,3.9,5.1,7.2,9,9.3l3.4,1.9
			l-3.9,0.4C203,231.1,197.8,231.7,192.5,231.7z M198.9,165.7c-6.8,0-13.7,4.1-17.8,10.7c-4.8,7.5-5.1,17-1,25.9
			c6.1,13,8,17.8,3.6,25.1c-0.1,0.2-0.2,0.4-0.2,0.4c0,0.1,0.9,1.4,8.9,1.4c2.5,0,5-0.1,7-0.3c-3.6-2.7-6.3-6.4-7.9-10.6l-0.8-2.2
			l2.3,0.6c3.4,0.9,6.4,0.4,7.7-1.1c0.6-0.7,0.9-1.5,0.8-2.5c0-0.2-0.1-0.5-0.1-0.7c-3.3,0.4-6.6-1.6-8.8-5.3c-2-3.3-2.3-7.1-1-9.5
			c0.9-1.7,2.5-2.6,4.5-2.6c3.8,0,8.6,3.4,10,5.7c0.4,0.7,1.3,2.1,1.4,4.2c0.2-0.2,0.3-0.4,0.4-0.7c0.5-1.6-0.2-4.1-2-6.3l-1.4-1.7
			l2.2-0.3c21.8-2.9,30.3-15.6,31-25.6c0.4-5.2-1.4-8.6-3.3-9.1c-0.9-0.2-1.7-0.4-2.4-0.4c-2,0-2.9,1-4,2.1
			c-1.2,1.2-2.6,2.7-5.4,2.3c-2.1-0.3-4-1.1-5.8-1.7c-1.8-0.7-3.5-1.4-5-1.4c-3.2,0.1-4.4,1-5.6,1.9c-1.2,0.9-2.6,2-5.6,1.7
			C199.9,165.7,199.4,165.7,198.9,165.7z"/>
	</g>
	<rect x="197" y="307.8" class="st7" width="37.9" height="11.4"/>
	<g>
		<path class="st3" d="M176.8,310.1c-1.3,0.1-2.7-0.2-3.9-0.9c-3.8-1.9-5.2-6.6-3.3-10.3l24.3-46.9c1.9-3.8,6.6-5.2,10.3-3.3
			c3.8,1.9,5.2,6.6,3.3,10.3L183.2,306C181.9,308.5,179.4,310,176.8,310.1z"/>
		<path class="st7" d="M176.4,311.4c-1.4,0-2.8-0.3-4.1-1c-4.3-2.3-6.1-7.6-3.8-12l24.3-46.9c1.5-3,4.6-4.8,7.9-4.8
			c1.4,0,2.8,0.3,4.1,1c2.1,1.1,3.7,2.9,4.4,5.2c0.7,2.3,0.5,4.7-0.6,6.8l-24.3,46.9c-1.4,2.8-4.3,4.6-7.4,4.8
			C176.7,311.4,176.5,311.4,176.4,311.4z M200.7,249.2c-2.4,0-4.6,1.3-5.7,3.5l-24.3,46.9c-1.6,3.2-0.4,7,2.8,8.7
			c1,0.5,2.1,0.8,3.3,0.7c2.3-0.1,4.3-1.4,5.4-3.5l24.3-46.9c0.8-1.5,0.9-3.3,0.4-4.9c-0.5-1.6-1.6-3-3.2-3.8
			C202.7,249.4,201.7,249.2,200.7,249.2z"/>
	</g>
	<g>
		<g>
			
				<rect x="210.3" y="265.9" transform="matrix(0.1678 -0.9858 0.9858 0.1678 -84.1183 473.2637)" class="st1" width="55.9" height="41.1"/>
			<path class="st7" d="M254.8,318.9l-43-7.3l9.8-57.5l42.9,7.3L254.8,318.9z M214.7,309.6l38.1,6.5l9-52.7l-38.1-6.5L214.7,309.6z"
				/>
		</g>
		<g>
			
				<rect x="240.4" y="246.3" transform="matrix(0.1678 -0.9858 0.9858 0.1678 -52.469 454.6168)" class="st1" width="5.3" height="24.2"/>
			<path class="st7" d="M255.5,264.4l-26.3-4.5l1.3-7.6l26.3,4.5L255.5,264.4z M232.1,258l21.5,3.7l0.5-2.8l-21.5-3.7L232.1,258z"/>
		</g>
	</g>
	<g>
		<path class="st1" d="M243.8,293.1c-0.1-0.5-0.4-0.9-1-1l-11.7-2c-0.4-0.1-0.6-0.4-0.7-0.7l0,0c0-0.4,0.3-0.8,0.7-0.8l10.4-0.6
			c0.6,0,1.1-0.6,1-1.2l0,0c-0.1-0.4-0.4-0.8-0.9-0.8c-3.3-0.4-23-2.2-23-2.2V279c-1.5,0.8-3.3,1.9-4.3,2.9
			c-1.6,1.7-4.4,7.1-4.4,7.1l-6.6,1.5l5.1,7.7c0,0,14.5,0.7,19.5,0.3c0,0,6.3,1.6,9.9,1c0.4-0.1,0.7-0.4,0.7-0.9v0
			c0-0.4-0.3-0.8-0.7-0.9l-7.8-1.7l0-0.5l11.2,0.7c0.3,0,0.6-0.2,0.8-0.4l0,0c0.3-0.5,0-1.2-0.6-1.3l-8.2-1.1l9,1
			C243.3,294.5,243.9,293.8,243.8,293.1L243.8,293.1z"/>
		<path class="st7" d="M236.4,300.8c-3.3,0-7.4-0.9-8.3-1.1c-0.9,0.1-2.2,0.1-3.8,0.1c-6.2,0-15.6-0.4-15.7-0.4l-0.6,0l-6.5-9.7
			l7.8-1.8c0.8-1.4,2.9-5.3,4.3-6.8c0.9-0.9,2.4-2,4.6-3.1l1.8-0.9v5.5c4.2,0.4,19.1,1.7,21.9,2.1c1,0.1,1.8,0.9,1.9,1.8
			c0.1,0.7,0,1.3-0.4,1.8c-0.4,0.5-1,0.8-1.7,0.9l-6.7,0.4l8,1.4c1,0.2,1.8,1,2,2.1c0.1,0.7-0.1,1.4-0.6,1.9
			c-0.2,0.2-0.4,0.4-0.7,0.5c0,0.3-0.1,0.7-0.3,1c-0.4,0.7-1.1,1.1-1.8,1.1l-0.1,0l-1.9-0.1c0.3,0.4,0.4,0.8,0.4,1.3
			c0,1-0.8,1.9-1.8,2.1C237.7,300.8,237.1,300.8,236.4,300.8z M228.3,297.3l0.2,0c0,0,3.4,0.8,6.6,1.1l-5.9-1.3l0-2.8l4.3,0.3
			l0.3-2.3l9,1l-11.7-1.9c-0.9-0.2-1.6-1-1.7-1.9c0-1.1,0.8-2.1,1.9-2.1l8.3-0.4c-6-0.6-20.7-1.9-20.8-2l-1.1-0.1v-3.6
			c-1,0.6-1.7,1.1-2.1,1.6c-1.2,1.3-3.4,5.4-4.2,6.8L211,290l-5.4,1.2l3.8,5.7c2.2,0.1,9.7,0.4,14.9,0.4c1.7,0,2.9,0,3.8-0.1
			L228.3,297.3z"/>
	</g>
	<g>
		<path class="st3" d="M210,287.7l-35.1,7.2c-4.1,0.8-6.8,4.9-6,9c0.8,4.1,4.9,6.8,9,6l35.6-7.1L210,287.7z"/>
		<path class="st7" d="M176.4,311.3L176.4,311.3c-4.2,0-7.9-3-8.7-7.1c-0.5-2.3,0-4.7,1.3-6.7c1.3-2,3.3-3.3,5.6-3.8l36.2-7.4
			l4.1,17.5l-36.9,7.4C177.6,311.3,177,311.3,176.4,311.3z M209.1,289.2l-33.9,7c-1.7,0.3-3.1,1.3-4.1,2.7c-1,1.4-1.3,3.1-1,4.8
			c0.6,3,3.3,5.2,6.3,5.2c0,0,0,0,0,0c0.4,0,0.9,0,1.3-0.1l34.4-6.9L209.1,289.2z"/>
	</g>
</g>
<g>
	<g>
		<path class="st1" d="M461.6,347.3h19.5c-2.5-5.6-6.8-14.1-6.8-14.1l-8.9-1.4l1.4,6.5c0,0-3.6,4.7-4.5,6.7
			C461.9,345.6,461.7,346.4,461.6,347.3z"/>
		<path class="st7" d="M460.4,347.3h2.4c0.1-0.7,0.3-1.3,0.5-1.8c0.7-1.6,3.4-5.2,4.4-6.5l0.3-0.4l-1.1-5.3l6.6,1.1
			c1,1.9,4.2,8.3,6.3,13h2.6c-2.4-5.5-6.9-14.2-7.1-14.6l-0.3-0.5l-11.2-1.8l1.6,7.6c-0.9,1.2-3.6,4.7-4.3,6.6
			C460.7,345.3,460.5,346.2,460.4,347.3z"/>
	</g>
	<g>
		<polygon class="st1" points="436.3,347.3 435.9,327.2 414,327.8 415.2,347.3 		"/>
		<path class="st7" d="M437.5,348.5h-23.4l-1.4-21.8l24.4-0.7L437.5,348.5z M416.4,346H435l-0.3-17.6l-19.4,0.6L416.4,346z"/>
	</g>
	<g>
		<ellipse class="st1" cx="431" cy="325.5" rx="20.2" ry="17.9"/>
		<path class="st7" d="M431,344.7c-11.8,0-21.4-8.6-21.4-19.2c0-10.6,9.6-19.2,21.4-19.2s21.4,8.6,21.4,19.2
			C452.4,336.1,442.8,344.7,431,344.7z M431,308.8c-10.4,0-18.9,7.5-18.9,16.7c0,9.2,8.5,16.7,18.9,16.7c10.4,0,18.9-7.5,18.9-16.7
			C449.9,316.3,441.4,308.8,431,308.8z"/>
	</g>
	<g>
		<polygon class="st1" points="449.3,347.3 449.8,327.5 422.2,327.9 423.2,347.3 		"/>
		<path class="st7" d="M450.5,348.5H422l-1.1-21.8l30.1-0.4L450.5,348.5z M424.3,346h23.8l0.4-17.3l-25,0.3L424.3,346z"/>
	</g>
	<g>
		<path class="st7" d="M435.7,341.5c-5-0.8-6.7-4.6-6.8-6.5l2.4-0.2c0,0.1,0.4,3.6,4.8,4.3L435.7,341.5z"/>
	</g>
	<g>
		<path class="st1" d="M373.2,341c0.8,0.4,2.1,0.8,3.5,0.7c2.5-0.2,5.3-1.3,5.3-1.3l0.2,0.9c-0.7,1-1.5,3.3-2.4,6h14.7
			c2.2-5.6,4.9-13,4.9-13l-5-7.4l-3.7,5.4c0,0-5.8,0.6-7.9,1.3c-2.1,0.8-5.3,3.8-5.9,4.4c-0.5,0.5-2.5,1-3.4,1.2
			c-0.3,0.1-0.5,0.3-0.6,0.5l0,0C372.4,340.2,372.7,340.8,373.2,341z"/>
		<path class="st7" d="M395.3,348.5h-17.2l0.5-1.6c0.7-2,1.2-3.5,1.7-4.6c-1,0.3-2.3,0.6-3.6,0.7c-0.2,0-0.4,0-0.6,0l0,0
			c-1.5,0-2.8-0.4-3.5-0.8c-0.5-0.2-1-0.7-1.2-1.3c-0.2-0.6-0.2-1.2,0.1-1.7c0.3-0.6,0.8-1,1.4-1.2c1.8-0.4,2.7-0.8,2.9-1
			c0.4-0.3,3.8-3.7,6.3-4.6c1.9-0.7,6.1-1.2,7.7-1.3l4.4-6.4l6.4,9.4l-0.2,0.6c0,0.1-2.7,7.5-4.9,13.1L395.3,348.5z M381.5,346h12.1
			c1.8-4.5,3.7-9.9,4.3-11.6l-3.7-5.4l-3,4.4l-0.6,0.1c-1.6,0.2-6,0.7-7.6,1.3c-1.6,0.6-4.3,3-5.5,4.1c-0.2,0.2-0.7,0.7-3.3,1.4
			c0.5,0.2,1.2,0.3,1.9,0.3l0,0c0.1,0,0.3,0,0.4,0c2.3-0.2,4.9-1.2,5-1.2l1.3-0.5l0.6,2.8l-0.3,0.4
			C382.9,342.4,382.4,343.5,381.5,346z"/>
	</g>
	<g>
		<path class="st5" d="M421.7,241.5c3.9,1.1,6.3,5.1,5.2,9.1l-23.5,88.6l-15.1-6.7l24.3-85.8C413.7,242.8,417.7,240.5,421.7,241.5z"
			/>
		<path class="st7" d="M404.2,340.9l-17.4-7.7l0.3-1l24.3-85.8c1-3.7,4.4-6.4,8.3-6.4c0.8,0,1.5,0.1,2.2,0.3c2.2,0.6,4.1,2,5.2,4
			c1.1,2,1.5,4.3,0.9,6.5L404.2,340.9z M389.8,331.8l12.8,5.7l23.1-87.2c0.4-1.6,0.2-3.3-0.6-4.7c-0.8-1.4-2.2-2.4-3.7-2.9
			c-0.5-0.1-1.1-0.2-1.6-0.2c-2.8,0-5.2,1.9-6,4.6L389.8,331.8z"/>
	</g>
	<g>
		<path class="st5" d="M452.5,347.3V260c0-12.2-9.9-22.1-22.1-22.1H430c-12.2,0-22.1,9.9-22.1,22.1v82.6l20.8,4.6H452.5z"/>
		<path class="st7" d="M453.7,348.5l-25.3,0l-21.8-4.9V260c0-12.9,10.5-23.3,23.3-23.3h0.4c12.9,0,23.3,10.5,23.3,23.3V348.5z
			 M428.8,346h22.5v-86c0-11.5-9.4-20.9-20.9-20.9H430c-11.5,0-20.9,9.4-20.9,20.9v81.6L428.8,346z"/>
	</g>
	<g>
		<polygon class="st1" points="434,232.3 416.7,241.7 416.7,253.3 435.8,240.4 		"/>
		<path class="st7" d="M415.5,255.6V241l19.4-10.5l2.3,10.5L415.5,255.6z M417.9,242.4v8.6l16.5-11.2l-1.2-5.7L417.9,242.4z"/>
	</g>
	<g>
		<polygon class="st1" points="421.3,247.6 436.6,241.1 436.6,220.4 421.3,220.4 		"/>
		<path class="st7" d="M420,249.5v-30.3h17.8v22.7L420,249.5z M422.5,221.6v24.1l12.9-5.5v-18.7H422.5z"/>
	</g>
	<path class="st7" d="M436.6,233.1c-3,1.7-6.5,2.6-10.2,2.6H426c-1.6,0-3.2-0.2-4.8-0.6v-14.8h15.4V233.1z"/>
	<g>
		<path class="st1" d="M426,233.4h0.4c11.6,0,20.9-9.4,20.9-20.9v-29.3h-42.3v29.3C405.1,224,414.5,233.4,426,233.4z"/>
		<path class="st7" d="M426.4,234.6H426c-12.2,0-22.2-9.9-22.2-22.2v-30.6h44.7v30.6C448.6,224.7,438.7,234.6,426.4,234.6z
			 M406.3,184.3v28.1c0,10.9,8.8,19.7,19.7,19.7h0.4c10.9,0,19.7-8.8,19.7-19.7v-28.1H406.3z"/>
	</g>
	<g>
		<path class="st4" d="M399.9,164.7c9.8-4.5,13.8,6,17.6,6.4c3.7,0.4,5.1-4.6,10.6-4.7c7.8-0.1,6,4.4,10.6,5.4
			c4.6,0.9,15.7,0.8,20.9,7.9c5.2,7.1-7,36.6-11.9,39.3c-6.4,3.6-11.1-0.2-10.7-3.9c0-0.5,0.1-1.2,0.1-1.9c0,0,0,0,0,0
			c6.2,2,11.3-7.5,8.8-11.9c-2.4-4.1-9.1,0-11.1,2.7H431c0.4-1.1,6-17.6,4.8-19.4c-2.1-3.4-7.3,6.1-29.9,2.6
			C394.1,185.2,390.1,169.2,399.9,164.7z"/>
		<path class="st7" d="M442.6,221.6c-2.2,0-4.1-0.8-5.4-2.2c-1.1-1.2-1.7-2.8-1.5-4.4c0-0.5,0.1-1.2,0.1-1.9l0.1-1.6l1.6,0.5
			c2.4,0.7,4.9-0.7,6.5-3.6c1.3-2.3,1.7-5,0.8-6.6c-0.5-0.8-1.1-1.1-2.1-1.1c-2.5,0-5.8,2.3-7,3.9l-0.4,0.5h-6.1l0.7-2.3
			c4.8-14.5,4.8-17.3,4.7-17.8c-0.1-0.1-0.1-0.1-0.2-0.1c-0.5,0-1.4,0.4-2.5,0.8c-3,1.2-8,3.3-16.5,3.3c-3.1,0-6.4-0.3-9.9-0.8
			c-7.5-1.2-11.7-7.4-12.4-12.7c-0.7-5.3,1.6-9.8,6.1-11.9c1.8-0.8,3.5-1.2,5.2-1.2c4.4,0,7.5,3,9.8,5.1c1.2,1.2,2.4,2.3,3.2,2.4
			c1.3,0.1,2.2-0.7,3.5-1.7c1.6-1.3,3.6-3,6.9-3l0.4,0c4.9,0,6.4,1.9,7.7,3.4c0.8,1,1.4,1.7,2.9,2c0.8,0.2,2,0.3,3.2,0.5
			c5.5,0.7,13.9,1.7,18.4,7.9c1.8,2.5,2,7,0.5,13.6c-2.5,11.3-9.1,25.4-12.8,27.5C446.3,221.1,444.4,221.6,442.6,221.6z
			 M438.2,214.6c0,0.2,0,0.4,0,0.6c-0.1,0.9,0.2,1.8,0.9,2.5c1.6,1.8,4.8,1.9,8,0.2c2.6-1.4,9.1-14.1,11.6-25.9
			c1.3-5.7,1.2-9.8-0.1-11.7c-3.9-5.3-11.6-6.2-16.7-6.9c-1.3-0.2-2.5-0.3-3.4-0.5c-2.3-0.5-3.4-1.7-4.3-2.8c-1.1-1.3-2-2.5-5.8-2.5
			l-0.3,0c-2.4,0-3.9,1.2-5.4,2.5c-1.5,1.2-3,2.5-5.3,2.2c-1.6-0.2-3-1.5-4.7-3c-2.2-2.1-4.7-4.4-8.1-4.4c-1.3,0-2.7,0.3-4.1,1
			c-3.5,1.6-5.3,5.1-4.7,9.4c0.6,4.4,4.1,9.7,10.4,10.6c3.3,0.5,6.5,0.8,9.5,0.8c8,0,12.7-1.9,15.5-3.1c1.4-0.6,2.5-1,3.5-1
			c1,0,1.8,0.5,2.3,1.3c0.5,0.7,1.3,2.1-4.2,18.8h1.6c1.7-2,5.4-4.4,8.5-4.4c1.8,0,3.3,0.8,4.2,2.4c1.3,2.3,1,5.8-0.8,9
			C444.2,212.9,441.2,214.8,438.2,214.6z"/>
	</g>
	<g>
		<rect x="420.5" y="189.8" transform="matrix(0.3 -0.9539 0.9539 0.3 107.9437 540.6279)" class="st7" width="3.7" height="13.9"/>
	</g>
	<g>
		
			<rect x="406.5" y="190.4" transform="matrix(0.3504 -0.9366 0.9366 0.3504 82.297 509.2781)" class="st7" width="3.7" height="9.8"/>
	</g>
	<path class="st7" d="M417.9,205.4L417.9,205.4c0.9,0,1.6-0.7,1.6-1.6V202c0-0.9-0.7-1.6-1.6-1.6h0c-0.9,0-1.6,0.7-1.6,1.6v1.8
		C416.3,204.7,417,205.4,417.9,205.4z"/>
	<path class="st7" d="M408.9,205.4L408.9,205.4c0.9,0,1.6-0.7,1.6-1.6V202c0-0.9-0.7-1.6-1.6-1.6h0c-0.9,0-1.6,0.7-1.6,1.6v1.8
		C407.3,204.7,408,205.4,408.9,205.4z"/>
	<g>
		<path class="st7" d="M414.3,211.1c-6.9,0-9.1-5.2-9.2-5.4l2.3-0.9c0.1,0.2,1.8,4.1,7.4,3.9l0.1,2.4
			C414.7,211.1,414.5,211.1,414.3,211.1z"/>
	</g>
	<g>
		<polygon class="st7" points="414.8,220.7 408.4,216.4 409.8,214.4 414.8,217.7 419.9,214.4 421.2,216.4 		"/>
	</g>
	<g>
		<polygon class="st1" points="438.6,233.4 421.3,242.8 421.3,254.4 440.4,241.5 		"/>
		<path class="st7" d="M420,256.7v-14.7l19.4-10.5l2.3,10.5L420,256.7z M422.5,243.5v8.6l16.5-11.2l-1.2-5.7L422.5,243.5z"/>
	</g>
	<g>
		
			<rect x="432.4" y="308.5" transform="matrix(0.233 -0.9725 0.9725 0.233 22.5256 666.1952)" class="st7" width="2.4" height="20.7"/>
	</g>
	<g>
		<path class="st5" d="M441.1,246.3c3.9-1.2,8,0.9,9.3,4.8l27.1,85.8l-14.8,2.9l-26.4-84.2C435.1,251.7,437.3,247.5,441.1,246.3z"/>
		<path class="st7" d="M461.9,341.2l-26.7-85.3c-1.4-4.5,1.1-9.4,5.6-10.8c0.8-0.3,1.7-0.4,2.6-0.4c3.8,0,7.1,2.4,8.2,6l27.5,87.1
			L461.9,341.2z M443.4,247.2c-0.6,0-1.3,0.1-1.9,0.3c-3.2,1-5.1,4.5-4,7.7l26.1,83.2l12.4-2.4l-26.7-84.5
			C448.4,248.9,446.1,247.2,443.4,247.2z"/>
	</g>
</g>
<g>
	<path class="st4" d="M593.9,353.2H67.1c-2.1,0-3.8-1.7-3.8-3.8v-0.1c0-2.1,1.7-3.8,3.8-3.8h526.8c2.1,0,3.8,1.7,3.8,3.8v0.1
		C597.6,351.5,595.9,353.2,593.9,353.2z"/>
	<path class="st8" d="M593.9,345.6H67.1c-2.1,0-3.8,1.7-3.8,3.8v0.1c0,0.5,0.1,0.9,0.3,1.3c0.5-1.4,1.9-2.4,3.5-2.4h526.8
		c1.6,0,3,1,3.5,2.4c0.2-0.4,0.3-0.9,0.3-1.3v-0.1C597.6,347.2,595.9,345.6,593.9,345.6z"/>
	<path class="st7" d="M593.9,354.6H67.1c-2.8,0-5.1-2.3-5.1-5.1c0-2.9,2.3-5.2,5.1-5.2h526.8c2.8,0,5.1,2.3,5.1,5.1
		C599,352.2,596.7,354.6,593.9,354.6z M67.1,346.9c-1.3,0-2.4,1.1-2.4,2.4c0,1.4,1.1,2.5,2.4,2.5h526.8c1.3,0,2.4-1.1,2.4-2.4
		c0-1.4-1.1-2.5-2.4-2.5H67.1z"/>
	<rect x="75.6" y="353.2" class="st4" width="509.7" height="18.8"/>
	<path class="st7" d="M586.7,373.4H74.2v-21.6h512.5V373.4z M77,370.7h507v-16.1H77V370.7z"/>
	<rect x="77" y="354.6" class="st9" width="507" height="3.2"/>
</g>
<g>
	<path class="st4" d="M374.1,335.4H269.8c-1.6,0-2.9-1.3-2.9-2.8V273c0-1.6,1.3-2.8,2.9-2.8h104.3c1.6,0,2.9,1.3,2.9,2.8v59.5
		C377,334.1,375.7,335.4,374.1,335.4z"/>
	<path class="st1" d="M374.1,270.2H269.8c-1.6,0-2.9,1.3-2.9,2.8v3.7c0-1.6,1.3-2.8,2.9-2.8h104.3c1.6,0,2.9,1.3,2.9,2.8V273
		C377,271.4,375.7,270.2,374.1,270.2z"/>
	<path class="st7" d="M374.1,336.6H269.8c-2.3,0-4.1-1.8-4.1-4.1V273c0-2.2,1.8-4.1,4.1-4.1h104.3c2.3,0,4.1,1.8,4.1,4.1v59.5
		C378.2,334.8,376.4,336.6,374.1,336.6z M269.8,271.4c-0.9,0-1.7,0.7-1.7,1.6v59.5c0,0.9,0.7,1.6,1.7,1.6h104.3
		c0.9,0,1.7-0.7,1.7-1.6V273c0-0.9-0.7-1.6-1.7-1.6H269.8z"/>
	<g>
		<path class="st4" d="M368.3,346.9h-92.7c-4.4,0-7.9-3.5-7.9-7.8V339h108.5v0.1C376.2,343.4,372.7,346.9,368.3,346.9z"/>
		<path class="st7" d="M368.3,348.1h-92.7c-5,0-9.1-4-9.1-9v-1.2l1.2-0.1h109.7v1.2C377.5,344.1,373.3,348.1,368.3,348.1z
			 M269,340.3c0.6,3.1,3.3,5.4,6.6,5.4h92.7c3.3,0,6-2.3,6.6-5.4H269z"/>
	</g>
	<g>
		<path class="st4" d="M289.6,337.2c0,1-0.8,1.8-1.8,1.8h-9.3c-1,0-1.8-0.8-1.8-1.8l0,0c0-1,0.8-1.8,1.8-1.8h9.3
			C288.8,335.4,289.6,336.2,289.6,337.2L289.6,337.2z"/>
		<path class="st7" d="M287.8,340.3h-9.3c-1.7,0-3.1-1.4-3.1-3.1c0-1.7,1.4-3.1,3.1-3.1h9.3c1.7,0,3.1,1.4,3.1,3.1
			C290.8,338.9,289.5,340.3,287.8,340.3z M278.4,336.6c-0.3,0-0.6,0.3-0.6,0.6c0,0.3,0.3,0.6,0.6,0.6h9.3c0.3,0,0.6-0.3,0.6-0.6
			c0-0.3-0.3-0.6-0.6-0.6H278.4z"/>
	</g>
	<g>
		<path class="st4" d="M365.6,337.2c0,1-0.8,1.8-1.8,1.8h-9.3c-1,0-1.8-0.8-1.8-1.8l0,0c0-1,0.8-1.8,1.8-1.8h9.3
			C364.8,335.4,365.6,336.2,365.6,337.2L365.6,337.2z"/>
		<path class="st7" d="M363.8,340.3h-9.3c-1.7,0-3.1-1.4-3.1-3.1c0-1.7,1.4-3.1,3.1-3.1h9.3c1.7,0,3.1,1.4,3.1,3.1
			C366.8,338.9,365.5,340.3,363.8,340.3z M354.4,336.6c-0.3,0-0.6,0.3-0.6,0.6c0,0.3,0.3,0.6,0.6,0.6h9.3c0.3,0,0.6-0.3,0.6-0.6
			c0-0.3-0.3-0.6-0.6-0.6H354.4z"/>
	</g>
</g>
<g>
	<rect x="387.5" y="326.5" class="st1" width="32.1" height="20.4"/>
	<path class="st7" d="M420.8,348.1h-34.6v-22.8h34.6V348.1z M388.7,345.7h29.7v-17.9h-29.7V345.7z"/>
</g>
<g>
	<path class="st1" d="M412.8,339.4h-18.6c-1.7,0-3.1-1.4-3.1-3.1v-34.4c0-1.7,1.4-3.1,3.1-3.1h18.6c1.7,0,3.1,1.4,3.1,3.1v34.4
		C415.9,338,414.5,339.4,412.8,339.4z"/>
	<path class="st7" d="M412.8,340.6h-18.6c-2.4,0-4.3-1.9-4.3-4.3v-34.4c0-2.4,1.9-4.3,4.3-4.3h18.6c2.4,0,4.3,1.9,4.3,4.3v34.4
		C417.1,338.7,415.2,340.6,412.8,340.6z M394.2,300c-1,0-1.8,0.8-1.8,1.8v34.4c0,1,0.8,1.8,1.8,1.8h18.6c1,0,1.8-0.8,1.8-1.8v-34.4
		c0-1-0.8-1.8-1.8-1.8H394.2z"/>
</g>
<circle class="st7" cx="396.3" cy="303.1" r="1.2"/>
<g>
	<g>
		<g>
			<path class="st4" d="M321.9,291.5c0,0,12.5,0.2,11.5,12.2c-0.3,4.1-4,8.1-5.1,9.2c-0.2,0.2-0.3,0.4-0.4,0.7l-0.7,2.8h0v5.2
				c0,0.9-0.8,1.7-1.7,1.7h0.3l-0.3,0.9c-0.2,0.6-0.8,1-1.4,1h-4.3c-0.6,0-1.2-0.4-1.4-1l-0.3-0.9h0.3c-0.9,0-1.7-0.8-1.7-1.7v-5.2
				h0l-0.7-2.8c-0.1-0.3-0.2-0.5-0.4-0.7c-1.1-1.1-4.8-5-5.1-9.2C309.5,291.7,321.9,291.5,321.9,291.5z"/>
		</g>
	</g>
	<g>
		<g>
			<path class="st1" d="M315,324.7c-0.1,0-0.2,0-0.3-0.1c-1.3-0.4-1.2-2.8-1-5.6c0.1-1.8,0.2-4.2-0.4-4.6c-0.1,0-0.2-0.1-0.5-0.1
				c-0.9,0-2.5,0.6-4.1,1.2c-1.7,0.6-3.3,1.2-4.4,1.2c-0.6,0-1-0.2-1.2-0.5c-0.8-1.1,0.7-2.9,2.4-5.1c1.1-1.4,2.7-3.4,2.4-4
				c-0.2-0.6-2.5-1.3-4.2-1.7c-2.7-0.7-5.1-1.4-5.1-2.8s2.3-2,5.1-2.8c1.7-0.5,4-1.1,4.2-1.7c0.2-0.7-1.3-2.6-2.4-4
				c-1.7-2.1-3.2-4-2.4-5.1c0.2-0.3,0.7-0.5,1.2-0.5c1.1,0,2.7,0.6,4.4,1.2c1.5,0.6,3.2,1.2,4.1,1.2c0.3,0,0.4-0.1,0.5-0.1
				c0.6-0.4,0.4-2.8,0.4-4.6c-0.1-2.8-0.2-5.2,1-5.6c0.1,0,0.2-0.1,0.3-0.1c1.1,0,2.3,1.8,3.7,3.9c1,1.5,2.4,3.6,3.1,3.6
				c0.7,0,2.1-2.1,3.1-3.6c1.4-2.1,2.6-3.9,3.7-3.9c0.1,0,0.2,0,0.3,0.1c1.3,0.4,1.2,2.8,1,5.6c-0.1,1.8-0.2,4.2,0.4,4.6
				c0.1,0,0.2,0.1,0.5,0.1c0.9,0,2.5-0.6,4.1-1.2c1.7-0.6,3.3-1.2,4.4-1.2c0.6,0,1,0.2,1.2,0.5c0.8,1.1-0.7,2.9-2.4,5.1
				c-1.1,1.4-2.7,3.4-2.4,4c0.2,0.6,2.5,1.3,4.2,1.7c2.7,0.7,5.1,1.4,5.1,2.8s-2.3,2-5.1,2.8c-1.7,0.5-4,1.1-4.2,1.7
				c-0.2,0.7,1.3,2.6,2.4,4c1.7,2.1,3.2,4,2.4,5.1c-0.2,0.3-0.7,0.5-1.2,0.5c-1.1,0-2.7-0.6-4.4-1.2c-1.5-0.6-3.2-1.2-4.1-1.2
				c-0.3,0-0.4,0.1-0.5,0.1c-0.6,0.4-0.4,2.8-0.4,4.6c0.1,2.8,0.2,5.2-1,5.6c-0.1,0-0.2,0.1-0.3,0.1c-1.1,0-2.3-1.8-3.7-3.9
				c-1-1.5-2.4-3.6-3.1-3.6s-2.1,2.1-3.1,3.6C317.3,323,316.1,324.7,315,324.7L315,324.7z M325.7,320.4c1,1.5,2.3,3.5,3,3.5
				c0,0,0,0,0.1,0c0.7-0.2,0.5-2.9,0.5-4.7c-0.1-2.5-0.2-4.7,0.7-5.3c0.2-0.2,0.6-0.3,1-0.3c1.1,0,2.7,0.6,4.4,1.2
				c1.6,0.6,3.2,1.2,4.1,1.2c0.2,0,0.4,0,0.5-0.2c0.4-0.5-1.3-2.6-2.4-4c-1.6-2-3-3.7-2.6-4.8c0.3-1.1,2.4-1.6,4.8-2.3
				c1.8-0.5,4.4-1.2,4.4-1.9s-2.7-1.5-4.4-1.9c-2.4-0.7-4.5-1.2-4.8-2.3c-0.4-1.1,1-2.9,2.6-4.8c1-1.1,2.7-3.4,2.4-4
				c-0.1-0.1-0.3-0.2-0.5-0.2c-0.9,0-2.5,0.6-4.1,1.2c-1.7,0.6-3.3,1.2-4.4,1.2c-0.4,0-0.7-0.1-1-0.3c-0.9-0.7-0.8-2.8-0.7-5.3
				c0.1-1.8,0.2-4.5-0.5-4.7c0,0,0,0-0.1,0c-0.7,0-2,2-3,3.5c-1.4,2.1-2.6,4-3.9,4s-2.4-1.9-3.9-4c-1-1.5-2.3-3.5-3-3.5
				c0,0,0,0-0.1,0c-0.7,0.2-0.5,2.9-0.5,4.7c0.1,2.5,0.2,4.7-0.7,5.3c-0.2,0.2-0.6,0.3-1,0.3c-1.1,0-2.7-0.6-4.4-1.2
				c-1.6-0.6-3.2-1.2-4.1-1.2c-0.2,0-0.4,0-0.5,0.2c-0.4,0.5,1.3,2.6,2.4,4c1.6,2,3,3.7,2.6,4.8c-0.3,1.1-2.4,1.6-4.8,2.3
				c-1.8,0.5-4.4,1.2-4.4,1.9s2.7,1.5,4.4,1.9c2.4,0.7,4.5,1.2,4.8,2.3c0.4,1.1-1,2.8-2.6,4.8c-1.1,1.4-2.8,3.5-2.4,4
				c0.1,0.1,0.3,0.2,0.5,0.2c0.9,0,2.5-0.6,4.1-1.2c1.7-0.6,3.3-1.2,4.4-1.2c0.4,0,0.7,0.1,1,0.3c0.9,0.7,0.8,2.8,0.7,5.3
				c-0.1,1.8-0.2,4.5,0.5,4.7c0,0,0,0,0.1,0c0.7,0,2-2,3-3.5c1.4-2.1,2.6-4,3.9-4S324.3,318.3,325.7,320.4z"/>
		</g>
	</g>
	<g>
		<g>
			<g>
				<path class="st7" d="M320.4,306.8h-1.4c-1.3,0-2.3-1-2.3-2.3s1-2.3,2.3-2.3c1.3,0,2.3,1,2.3,2.3v1.4h0.6v0.9h-0.6v9.5h-0.9
					V306.8z M320.4,304.5c0-0.8-0.6-1.4-1.4-1.4c-0.8,0-1.4,0.6-1.4,1.4s0.6,1.4,1.4,1.4h1.4V304.5z"/>
			</g>
		</g>
		<g>
			<g>
				<path class="st7" d="M322.4,306.8h-0.6V306h0.6v-1.4c0-1.3,1-2.3,2.3-2.3c1.3,0,2.3,1,2.3,2.3s-1,2.3-2.3,2.3h-1.4v9.5h-0.9
					V306.8z M323.3,304.5v1.4h1.4c0.8,0,1.4-0.6,1.4-1.4s-0.6-1.4-1.4-1.4C323.9,303.1,323.3,303.8,323.3,304.5z"/>
			</g>
		</g>
	</g>
	<g>
		<g>
			<g>
				<path class="st1" d="M318.2,323.3h7.2c0.9,0,1.7-0.8,1.7-1.7v-5.2h-10.6v5.2C316.5,322.5,317.3,323.3,318.2,323.3z"/>
			</g>
			<g>
				<path class="st10" d="M318.2,323.3h7.2c0.9,0,1.7-0.8,1.7-1.7v-5.2h-10.6v5.2C316.5,322.5,317.3,323.3,318.2,323.3z"/>
			</g>
			<g>
				<path class="st11" d="M318.2,323.3h7.2c0.9,0,1.7-0.8,1.7-1.7v-5.2h-10.6v5.2C316.5,322.5,317.3,323.3,318.2,323.3z"/>
			</g>
		</g>
		<g>
			<path class="st7" d="M316.1,321.6v-5.7h11.5v5.7c0,1.2-1,2.1-2.1,2.1h-7.2C317,323.7,316.1,322.8,316.1,321.6z M316.9,316.8v4.8
				c0,0.7,0.6,1.3,1.3,1.3h7.2c0.7,0,1.3-0.6,1.3-1.3v-4.8H316.9z"/>
		</g>
	</g>
	<g>
		<g>
			<path class="st7" d="M319.7,325.2h4.3c0.6,0,1.2-0.4,1.4-1l0.3-0.9h-7.8l0.3,0.9C318.5,324.8,319,325.2,319.7,325.2z"/>
		</g>
	</g>
	<g>
		<g>
			<path class="st7" d="M316.5,318.9h10.6c0.4,0,0.6-0.3,0.6-0.6s-0.3-0.6-0.6-0.6h-10.6c-0.4,0-0.6,0.3-0.6,0.6
				S316.2,318.9,316.5,318.9z"/>
		</g>
	</g>
	<g>
		<g>
			<path class="st7" d="M316.5,320.5h10.6c0.4,0,0.6-0.3,0.6-0.6s-0.3-0.6-0.6-0.6h-10.6c-0.4,0-0.6,0.3-0.6,0.6
				S316.2,320.5,316.5,320.5z"/>
		</g>
	</g>
	<g>
		<g>
			<path class="st7" d="M316.5,322h10.6c0.4,0,0.6-0.3,0.6-0.6c0-0.4-0.3-0.6-0.6-0.6h-10.6c-0.4,0-0.6,0.3-0.6,0.6
				C315.9,321.7,316.2,322,316.5,322z"/>
		</g>
	</g>
	<g>
		<g>
			<path class="st7" d="M315.5,313.7c0-0.2-0.1-0.4-0.3-0.5c-1.1-1.1-4.9-5.2-5.2-9.4c-0.3-3.6,0.6-6.5,2.5-8.7c3.5-3.8,9.1-4,9.4-4
				c0.2,0,5.9,0.1,9.4,4c2,2.2,2.8,5.1,2.5,8.7c-0.3,4.3-4.1,8.3-5.2,9.4c-0.1,0.1-0.2,0.3-0.3,0.5l-0.8,3.1h-11.2L315.5,313.7z
				 M327.4,313.4c0.1-0.3,0.3-0.7,0.5-0.9c1.1-1.1,4.7-4.9,5-8.9c0.3-3.3-0.5-6-2.3-8c-3.2-3.6-8.7-3.7-8.7-3.7
				c-0.1,0-5.5,0.1-8.7,3.7c-1.8,2-2.6,4.7-2.3,8c0.3,4,3.9,7.8,5,8.9c0.3,0.3,0.4,0.6,0.5,0.9l0.6,2.5h9.9L327.4,313.4z"/>
		</g>
	</g>
	<g>
		<g>
			<path class="st1" d="M327,297.6c0.3,0,0.6-0.1,0.8-0.4c0.4-0.4,0.3-1.1-0.1-1.5c-1.6-1.4-3.7-2.2-5.9-2.2c-0.6,0-1.1,0.5-1.1,1.1
				s0.5,1.1,1.1,1.1c1.7,0,3.3,0.6,4.5,1.7C326.6,297.6,326.8,297.6,327,297.6z"/>
		</g>
	</g>
	<g>
		<g>
			<path class="st1" d="M329.3,300.9c0.1,0,0.3,0,0.4-0.1c0.6-0.2,0.8-0.8,0.6-1.4c-0.2-0.6-0.5-1.1-0.8-1.6c-0.3-0.5-1-0.6-1.5-0.3
				c-0.5,0.3-0.6,1-0.3,1.5c0.3,0.4,0.5,0.8,0.6,1.3C328.5,300.6,328.9,300.9,329.3,300.9z"/>
		</g>
	</g>
	<g>
		<g>
			<path class="st1" d="M317.7,310.7c0.4,0,0.7-0.2,0.9-0.5c0.3-0.5,0.1-1.2-0.4-1.5c-1-0.6-1.8-1.4-2.4-2.4c-0.3-0.5-1-0.7-1.5-0.4
				c-0.5,0.3-0.7,1-0.4,1.5c0.8,1.3,1.8,2.3,3.1,3.1C317.3,310.6,317.5,310.7,317.7,310.7z"/>
		</g>
	</g>
</g>
<g>
	<circle class="st12" cx="210.6" cy="84.5" r="21.9"/>
	<circle class="st1" cx="212.6" cy="84.5" r="21.9"/>
	<polygon class="st2" points="214.5,84.5 206.3,84.5 214.5,67.2 	"/>
	<polygon class="st2" points="210.8,84.5 218.9,84.5 210.8,101.7 	"/>
</g>
<g>
	<g class="st13">
		<path class="st12" d="M306.9,103.1v-3.2l-3.8-0.2c-0.2-1.5-0.6-3-1.2-4.3l3.2-2l-1.6-2.8l-3.4,1.8c-0.9-1.2-2-2.3-3.2-3.2l1.8-3.4
			l-2.8-1.6l-2,3.2c-1.4-0.6-2.8-1-4.3-1.2l-0.2-3.8h-3.2l-0.2,3.8c-1.5,0.2-3,0.6-4.3,1.2l-2-3.2l-2.8,1.6l1.8,3.4
			c-1.2,0.9-2.3,2-3.2,3.2l-3.4-1.8l-1.6,2.8l3.2,2c-0.6,1.4-1,2.8-1.2,4.3l-3.8,0.2v3.2l3.8,0.2c0.2,1.5,0.6,3,1.2,4.3l-3.2,2
			l1.6,2.8l3.4-1.8c0.9,1.2,2,2.3,3.2,3.2l-1.8,3.4l2.8,1.6l2-3.2c1.4,0.6,2.8,1,4.3,1.2l0.2,3.8h3.2l0.2-3.8c1.5-0.2,3-0.6,4.3-1.2
			l2,3.2l2.8-1.6l-1.8-3.4c1.2-0.9,2.3-2,3.2-3.2l3.4,1.8l1.6-2.8l-3.2-2c0.6-1.4,1-2.8,1.2-4.3L306.9,103.1z M287.8,113.1
			c-6.4,0-11.6-5.2-11.6-11.6c0-6.4,5.2-11.6,11.6-11.6c6.4,0,11.6,5.2,11.6,11.6C299.5,107.9,294.3,113.1,287.8,113.1z"/>
		<path class="st12" d="M287.8,94.8c-3.7,0-6.7,3-6.7,6.7c0,3.7,3,6.7,6.7,6.7c3.7,0,6.7-3,6.7-6.7
			C294.5,97.8,291.5,94.8,287.8,94.8z M287.8,104.4c-1.6,0-2.9-1.3-2.9-2.9c0-1.6,1.3-2.9,2.9-2.9c1.6,0,2.9,1.3,2.9,2.9
			C290.7,103.1,289.4,104.4,287.8,104.4z"/>
	</g>
	<g class="st13">
		<path class="st12" d="M330.5,114.8v-2.2l-2.7-0.1c-0.1-1.1-0.4-2.1-0.8-3l2.2-1.4l-1.1-1.9l-2.4,1.2c-0.6-0.8-1.4-1.6-2.2-2.2
			l1.2-2.4l-1.9-1.1l-1.4,2.2c-0.9-0.4-2-0.7-3-0.8l-0.1-2.7h-2.2l-0.1,2.7c-1.1,0.1-2.1,0.4-3,0.8l-1.4-2.2l-1.9,1.1l1.2,2.4
			c-0.8,0.6-1.6,1.4-2.2,2.2l-2.4-1.2l-1.1,1.9l2.2,1.4c-0.4,0.9-0.7,2-0.8,3l-2.7,0.1v2.2l2.7,0.1c0.1,1.1,0.4,2.1,0.8,3l-2.2,1.4
			l1.1,1.9l2.4-1.2c0.6,0.8,1.4,1.6,2.2,2.2l-1.2,2.4l1.9,1.1l1.4-2.2c0.9,0.4,2,0.7,3,0.8l0.1,2.7h2.2l0.1-2.7
			c1.1-0.1,2.1-0.4,3-0.8l1.4,2.2l1.9-1.1l-1.2-2.4c0.8-0.6,1.6-1.4,2.2-2.2l2.4,1.2l1.1-1.9l-2.2-1.4c0.4-0.9,0.7-2,0.8-3
			L330.5,114.8z M317.2,121.8c-4.5,0-8.1-3.6-8.1-8.1c0-4.5,3.6-8.1,8.1-8.1c4.5,0,8.1,3.6,8.1,8.1
			C325.3,118.2,321.7,121.8,317.2,121.8z"/>
		<path class="st12" d="M317.2,109c-2.6,0-4.7,2.1-4.7,4.7c0,2.6,2.1,4.7,4.7,4.7c2.6,0,4.7-2.1,4.7-4.7
			C321.9,111.1,319.8,109,317.2,109z M317.2,115.7c-1.1,0-2-0.9-2-2c0-1.1,0.9-2,2-2s2,0.9,2,2C319.3,114.8,318.3,115.7,317.2,115.7
			z"/>
	</g>
	<g>
		<path class="st1" d="M309.3,103.1v-3.2l-3.8-0.2c-0.2-1.5-0.6-3-1.2-4.3l3.2-2l-1.6-2.8l-3.4,1.8c-0.9-1.2-2-2.3-3.2-3.2l1.8-3.4
			l-2.8-1.6l-2,3.2c-1.4-0.6-2.8-1-4.3-1.2l-0.2-3.8h-3.2l-0.2,3.8c-1.5,0.2-3,0.6-4.3,1.2l-2-3.2l-2.8,1.6l1.8,3.4
			c-1.2,0.9-2.3,2-3.2,3.2l-3.4-1.8l-1.6,2.8l3.2,2c-0.6,1.4-1,2.8-1.2,4.3l-3.8,0.2v3.2l3.8,0.2c0.2,1.5,0.6,3,1.2,4.3l-3.2,2
			l1.6,2.8l3.4-1.8c0.9,1.2,2,2.3,3.2,3.2l-1.8,3.4l2.8,1.6l2-3.2c1.4,0.6,2.8,1,4.3,1.2l0.2,3.8h3.2l0.2-3.8c1.5-0.2,3-0.6,4.3-1.2
			l2,3.2l2.8-1.6l-1.8-3.4c1.2-0.9,2.3-2,3.2-3.2l3.4,1.8l1.6-2.8l-3.2-2c0.6-1.4,1-2.8,1.2-4.3L309.3,103.1z M290.3,113.1
			c-6.4,0-11.6-5.2-11.6-11.6c0-6.4,5.2-11.6,11.6-11.6c6.4,0,11.6,5.2,11.6,11.6C301.9,107.9,296.7,113.1,290.3,113.1z"/>
		<path class="st1" d="M290.3,94.8c-3.7,0-6.7,3-6.7,6.7c0,3.7,3,6.7,6.7,6.7c3.7,0,6.7-3,6.7-6.7C297,97.8,294,94.8,290.3,94.8z
			 M290.3,104.4c-1.6,0-2.9-1.3-2.9-2.9c0-1.6,1.3-2.9,2.9-2.9c1.6,0,2.9,1.3,2.9,2.9C293.2,103.1,291.9,104.4,290.3,104.4z"/>
	</g>
	<g>
		<path class="st1" d="M333,114.8v-2.2l-2.7-0.1c-0.1-1.1-0.4-2.1-0.8-3l2.2-1.4l-1.1-1.9l-2.4,1.2c-0.6-0.8-1.4-1.6-2.2-2.2
			l1.2-2.4l-1.9-1.1l-1.4,2.2c-0.9-0.4-2-0.7-3-0.8l-0.1-2.7h-2.2l-0.1,2.7c-1.1,0.1-2.1,0.4-3,0.8l-1.4-2.2l-1.9,1.1l1.2,2.4
			c-0.8,0.6-1.6,1.4-2.2,2.2l-2.4-1.2l-1.1,1.9l2.2,1.4c-0.4,0.9-0.7,2-0.8,3l-2.7,0.1v2.2l2.7,0.1c0.1,1.1,0.4,2.1,0.8,3l-2.2,1.4
			l1.1,1.9l2.4-1.2c0.6,0.8,1.4,1.6,2.2,2.2l-1.2,2.4l1.9,1.1l1.4-2.2c0.9,0.4,2,0.7,3,0.8l0.1,2.7h2.2l0.1-2.7
			c1.1-0.1,2.1-0.4,3-0.8l1.4,2.2l1.9-1.1l-1.2-2.4c0.8-0.6,1.6-1.4,2.2-2.2l2.4,1.2l1.1-1.9l-2.2-1.4c0.4-0.9,0.7-2,0.8-3
			L333,114.8z M319.7,121.8c-4.5,0-8.1-3.6-8.1-8.1c0-4.5,3.6-8.1,8.1-8.1c4.5,0,8.1,3.6,8.1,8.1
			C327.8,118.2,324.2,121.8,319.7,121.8z"/>
		<path class="st1" d="M319.7,109c-2.6,0-4.7,2.1-4.7,4.7c0,2.6,2.1,4.7,4.7,4.7c2.6,0,4.7-2.1,4.7-4.7
			C324.3,111.1,322.2,109,319.7,109z M319.7,115.7c-1.1,0-2-0.9-2-2c0-1.1,0.9-2,2-2s2,0.9,2,2C321.7,114.8,320.8,115.7,319.7,115.7
			z"/>
	</g>
</g>
<g>
	<path class="st1" d="M353.6,58.1H390c4.7,0,8.5,3.8,8.5,8.5v13.6c0,4.7-3.8,8.5-8.5,8.5h-23.4c-0.6,0-1.1,0.2-1.6,0.5l-7,5.3
		c-1.8,1.3-4.3,0.1-4.3-2.1v-1.1c0-1.5-1.2-2.7-2.7-2.7h-0.1c-3.2,0-5.8-2.6-5.8-5.8V66.7C345.1,62,348.9,58.1,353.6,58.1z"/>
	<path class="st14" d="M415.9,71.3h-36.3c-4.7,0-8.5,3.8-8.5,8.5v13.6c0,4.7,3.8,8.5,8.5,8.5H403c0.6,0,1.1,0.2,1.6,0.5l7,5.3
		c1.8,1.3,4.3,0.1,4.3-2.1v-1.1c0-1.5,1.2-2.7,2.7-2.7h0.1c3.2,0,5.8-2.6,5.8-5.8V79.9C424.4,75.2,420.6,71.3,415.9,71.3z"/>
	<path class="st4" d="M418.3,71.3H382c-4.7,0-8.5,3.8-8.5,8.5v13.6c0,4.7,3.8,8.5,8.5,8.5h23.4c0.6,0,1.1,0.2,1.6,0.5l7,5.3
		c1.8,1.3,4.3,0.1,4.3-2.1v-1.1c0-1.5,1.2-2.7,2.7-2.7h0.1c3.2,0,5.8-2.6,5.8-5.8V79.9C426.9,75.2,423,71.3,418.3,71.3z"/>
	<g>
		<circle class="st2" cx="389.6" cy="86.7" r="2.5"/>
		<circle class="st2" cx="400.2" cy="86.7" r="2.5"/>
		<circle class="st2" cx="410.7" cy="86.7" r="2.5"/>
	</g>
</g>
<g>
	<g>
		<path class="st12" d="M113.4,155.1h9.3c0.1-3.8,0.6-7.5,1.7-10.9h-8.1C114.5,147.4,113.5,151.1,113.4,155.1z"/>
		<path class="st12" d="M137.5,155.1v-10.9h-11.4c-1.1,3.3-1.7,7-1.7,10.9H137.5z"/>
		<path class="st12" d="M128.5,138.6c-0.7,1.2-1.4,2.5-1.9,4h10.9v-10.8C134.1,132.1,131,134.5,128.5,138.6z"/>
		<path class="st12" d="M149.4,137.8c0.9,1.5,1.6,3.1,2.2,4.8h7.7c-3.6-5.7-9.4-9.8-16.2-11.2C145.6,132.7,147.7,134.8,149.4,137.8z
			"/>
		<path class="st12" d="M124.4,167.5c-1-3.3-1.6-7-1.7-10.9h-9.3c0.1,3.9,1.2,7.6,2.9,10.9H124.4z"/>
		<path class="st12" d="M137.5,156.7h-13.2c0.1,3.9,0.7,7.6,1.7,10.9h11.4V156.7z"/>
		<path class="st12" d="M152.3,155.1c-0.1-3.9-0.7-7.6-1.7-10.9h-11.4v10.9H152.3z"/>
		<path class="st12" d="M139.1,131.8v10.8H150c-0.5-1.4-1.2-2.7-1.9-4C145.6,134.5,142.5,132.1,139.1,131.8z"/>
		<path class="st12" d="M127.2,173.9c-0.9-1.5-1.6-3-2.2-4.8h-7.7c3.6,5.7,9.4,9.8,16.2,11.2C131,179,128.9,176.8,127.2,173.9z"/>
		<path class="st12" d="M124.9,142.6c0.6-1.7,1.4-3.3,2.2-4.8c1.8-3,3.9-5.1,6.2-6.4c-6.8,1.4-12.6,5.5-16.2,11.2H124.9z"/>
		<path class="st12" d="M151.7,169.1c-0.6,1.7-1.4,3.3-2.2,4.8c-1.8,3-3.9,5.1-6.2,6.4c6.8-1.4,12.6-5.5,16.2-11.2H151.7z"/>
		<path class="st12" d="M152.2,144.2c1,3.3,1.6,7,1.7,10.9h9.3c-0.1-3.9-1.1-7.6-2.9-10.9H152.2z"/>
		<path class="st12" d="M148.1,173c0.7-1.2,1.4-2.5,1.9-3.9h-10.9v10.8C142.5,179.6,145.6,177.2,148.1,173z"/>
		<path class="st12" d="M163.2,156.7h-9.3c-0.1,3.8-0.6,7.5-1.7,10.9h8.1C162,164.3,163.1,160.6,163.2,156.7z"/>
		<path class="st12" d="M137.5,179.9v-10.8h-10.9c0.5,1.4,1.2,2.7,1.9,3.9C131,177.2,134.1,179.6,137.5,179.9z"/>
		<path class="st12" d="M139.1,156.7v10.9h11.4c1.1-3.3,1.7-7,1.7-10.9H139.1z"/>
	</g>
	<path class="st12" d="M157.3,175.4c-2,1.1-8.7,5.5-12.4,6.9c0.5-0.2,0.8-0.4,0.8-0.4s-3.3-3.4-4.3-2.6c-1.1,0.8-0.5,3.2-0.5,3.2
		c-3.6-0.6-8.7-2.2-8.7-2.2s-5.6-5.7-4.7-7.6c0.9-1.9,6.3-1,9.3-0.7c3,0.4,6.9-1.6,8.9-3.6c2-2,2-4.7,0.9-5.2s-9.6,2-12.2,1.9
		c-2.6-0.1-5.6,0.4-7.7,0.9c-2.1,0.4-6.2-0.8-10.6-0.9c-4.4-0.1-10.4,4.8-10.4,4.8l-1.3-0.4l0.2-0.6l-9.2-2.8l-0.4,1.4L90.5,182
		c0,0,0,0,0.1,0l-1,3.3l9.2,2.8l1-3.3c13.7,4.2,37.9,11.6,39.4,11.6c2.1,0,9.3-7.9,9.3-7.9l-8.7,4.1l7.6-4.2h0
		c1.9-0.6,4.2-1.9,5.8-3.2c1.3-1.1,5.5-6.1,6.5-7.5C160.3,176.9,157.9,175.1,157.3,175.4z M144.8,182.4c-0.7,0.3-1.3,0.4-1.6,0.4
		c-0.1,0-0.2,0-0.3,0C143.7,182.8,144.3,182.6,144.8,182.4z"/>
	<g>
		<path class="st4" d="M115.8,155.1h9.3c0.1-3.8,0.6-7.5,1.7-10.9h-8.1C117,147.4,116,151.1,115.8,155.1z"/>
		<path class="st4" d="M139.9,155.1v-10.9h-11.4c-1.1,3.3-1.7,7-1.7,10.9H139.9z"/>
		<path class="st4" d="M131,138.6c-0.7,1.2-1.4,2.5-1.9,4h10.9v-10.8C136.6,132.1,133.4,134.5,131,138.6z"/>
		<path class="st4" d="M151.9,137.8c0.9,1.5,1.6,3.1,2.2,4.8h7.7c-3.6-5.7-9.4-9.8-16.2-11.2C148,132.7,150.1,134.8,151.9,137.8z"/>
		<path class="st4" d="M126.8,167.5c-1-3.3-1.6-7-1.7-10.9h-9.3c0.1,3.9,1.2,7.6,2.9,10.9H126.8z"/>
		<path class="st4" d="M139.9,156.7h-13.2c0.1,3.9,0.7,7.6,1.7,10.9h11.4V156.7z"/>
		<path class="st4" d="M154.7,155.1c-0.1-3.9-0.7-7.6-1.7-10.9h-11.4v10.9H154.7z"/>
		<path class="st4" d="M141.5,131.8v10.8h10.9c-0.5-1.4-1.2-2.7-1.9-4C148.1,134.5,144.9,132.1,141.5,131.8z"/>
		<path class="st4" d="M129.6,173.9c-0.9-1.5-1.6-3-2.2-4.8h-7.7c3.6,5.7,9.4,9.8,16.2,11.2C133.5,179,131.4,176.8,129.6,173.9z"/>
		<path class="st4" d="M127.4,142.6c0.6-1.7,1.4-3.3,2.2-4.8c1.8-3,3.9-5.1,6.2-6.4c-6.8,1.4-12.6,5.5-16.2,11.2H127.4z"/>
		<path class="st4" d="M154.1,169.1c-0.6,1.7-1.4,3.3-2.2,4.8c-1.8,3-3.9,5.1-6.2,6.4c6.8-1.4,12.6-5.5,16.2-11.2H154.1z"/>
		<path class="st4" d="M154.7,144.2c1,3.3,1.6,7,1.7,10.9h9.3c-0.1-3.9-1.1-7.6-2.9-10.9H154.7z"/>
		<path class="st4" d="M150.5,173c0.7-1.2,1.4-2.5,1.9-3.9h-10.9v10.8C144.9,179.6,148.1,177.2,150.5,173z"/>
		<path class="st4" d="M165.6,156.7h-9.3c-0.1,3.8-0.6,7.5-1.7,10.9h8.1C164.5,164.3,165.5,160.6,165.6,156.7z"/>
		<path class="st4" d="M139.9,179.9v-10.8h-10.9c0.5,1.4,1.2,2.7,1.9,3.9C133.4,177.2,136.6,179.6,139.9,179.9z"/>
		<path class="st4" d="M141.5,156.7v10.9H153c1.1-3.3,1.7-7,1.7-10.9H141.5z"/>
	</g>
	<path class="st1" d="M159.7,175.4c-2,1.1-8.7,5.5-12.4,6.9c0.5-0.2,0.8-0.4,0.8-0.4s-3.3-3.4-4.3-2.6c-1.1,0.8-0.5,3.2-0.5,3.2
		c-3.6-0.6-8.7-2.2-8.7-2.2s-5.6-5.7-4.7-7.6c0.9-1.9,6.3-1,9.3-0.7c3,0.4,6.9-1.6,8.9-3.6c2-2,2-4.7,0.9-5.2s-9.6,2-12.2,1.9
		c-2.6-0.1-5.6,0.4-7.7,0.9c-2.1,0.4-6.2-0.8-10.6-0.9c-4.4-0.1-10.4,4.8-10.4,4.8l-1.3-0.4l0.2-0.6l-9.2-2.8l-0.4,1.4L92.9,182
		c0,0,0,0,0.1,0l-1,3.3l9.2,2.8l1-3.3c13.7,4.2,37.9,11.6,39.4,11.6c2.1,0,9.3-7.9,9.3-7.9l-8.7,4.1l7.6-4.2h0
		c1.9-0.6,4.2-1.9,5.8-3.2c1.3-1.1,5.5-6.1,6.5-7.5C162.7,176.9,160.3,175.1,159.7,175.4z M147.3,182.4c-0.7,0.3-1.3,0.4-1.6,0.4
		c-0.1,0-0.2,0-0.3,0C146.1,182.8,146.8,182.6,147.3,182.4z"/>
</g>
<g>
	<g>
		<path class="st1" d="M341.5,37.2L341.5,37.2c-0.6,0-1.1-0.5-1.1-1.1v-7.5c0-0.6,0.5-1.1,1.1-1.1h0c0.6,0,1.1,0.5,1.1,1.1v7.5
			C342.6,36.8,342.1,37.2,341.5,37.2z"/>
		<path class="st1" d="M336.6,32.4L336.6,32.4c0-0.6,0.5-1.1,1.1-1.1h7.5c0.6,0,1.1,0.5,1.1,1.1v0c0,0.6-0.5,1.1-1.1,1.1h-7.5
			C337.1,33.5,336.6,33,336.6,32.4z"/>
	</g>
</g>
<g>
	<g>
		<path class="st1" d="M460.8,63L460.8,63c-0.6,0-1.1-0.5-1.1-1.1v-7.5c0-0.6,0.5-1.1,1.1-1.1h0c0.6,0,1.1,0.5,1.1,1.1v7.5
			C461.9,62.5,461.4,63,460.8,63z"/>
		<path class="st1" d="M456,58.1L456,58.1c0-0.6,0.5-1.1,1.1-1.1h7.5c0.6,0,1.1,0.5,1.1,1.1v0c0,0.6-0.5,1.1-1.1,1.1H457
			C456.4,59.2,456,58.7,456,58.1z"/>
	</g>
</g>
<g>
	<g>
		<path class="st1" d="M164.2,99.5L164.2,99.5c-0.8,0-1.5-0.7-1.5-1.5v-10c0-0.8,0.7-1.5,1.5-1.5h0c0.8,0,1.5,0.7,1.5,1.5v10
			C165.7,98.9,165,99.5,164.2,99.5z"/>
		<path class="st1" d="M157.8,93.1L157.8,93.1c0-0.8,0.7-1.5,1.5-1.5h10c0.8,0,1.5,0.7,1.5,1.5v0c0,0.8-0.7,1.5-1.5,1.5h-10
			C158.4,94.5,157.8,93.9,157.8,93.1z"/>
	</g>
</g>
<g>
	<g>
		<path class="st1" d="M498.8,97.8L498.8,97.8c-0.8,0-1.5-0.7-1.5-1.5v-10c0-0.8,0.7-1.5,1.5-1.5h0c0.8,0,1.5,0.7,1.5,1.5v10
			C500.3,97.2,499.6,97.8,498.8,97.8z"/>
		<path class="st1" d="M492.3,91.4L492.3,91.4c0-0.8,0.7-1.5,1.5-1.5h10c0.8,0,1.5,0.7,1.5,1.5v0c0,0.8-0.7,1.5-1.5,1.5h-10
			C493,92.8,492.3,92.2,492.3,91.4z"/>
	</g>
</g>
<g>
	<g>
		<g>
			<path class="st1" d="M282,70.1h-0.2c0-4.3-3.5-7.9-7.9-7.9v-0.2c4.3,0,7.9-3.5,7.9-7.9h0.2c0,4.3,3.5,7.9,7.9,7.9v0.2
				C285.6,62.3,282,65.8,282,70.1z"/>
		</g>
	</g>
</g>
<g>
	<g>
		<g>
			<path class="st1" d="M527.1,75.2h-0.2c0-4.3-3.5-7.9-7.9-7.9v-0.2c4.3,0,7.9-3.5,7.9-7.9h0.2c0,4.3,3.5,7.9,7.9,7.9v0.2
				C530.6,67.3,527.1,70.8,527.1,75.2z"/>
		</g>
	</g>
</g>
<g>
	<g>
		<g>
			<path class="st1" d="M363,161.1h-0.2c0-4.3-3.5-7.9-7.9-7.9V153c4.3,0,7.9-3.5,7.9-7.9h0.2c0,4.3,3.5,7.9,7.9,7.9v0.2
				C366.5,153.2,363,156.7,363,161.1z"/>
		</g>
	</g>
</g>
<g>
	<g>
		<g>
			<path class="st1" d="M555.9,156.9h-0.1c0-3.8-3.1-6.9-6.9-6.9v-0.1c3.8,0,6.9-3.1,6.9-6.9h0.1c0,3.8,3.1,6.9,6.9,6.9v0.1
				C558.9,150,555.9,153.1,555.9,156.9z"/>
		</g>
	</g>
</g>
<g>
	<g>
		<g>
			<path class="st1" d="M83.7,210.7h-0.1c0-3.8-3.1-6.9-6.9-6.9v-0.1c3.8,0,6.9-3.1,6.9-6.9h0.1c0,3.8,3.1,6.9,6.9,6.9v0.1
				C86.8,203.9,83.7,206.9,83.7,210.7z"/>
		</g>
	</g>
</g>
<g>
	<g>
		<path class="st1" d="M326.1,142.9c-0.7,0-1.2-0.5-1.2-1.2v-2.9c0-0.7,0.5-1.2,1.2-1.2c0.7,0,1.2,0.5,1.2,1.2v2.9
			C327.3,142.4,326.7,142.9,326.1,142.9z"/>
	</g>
	<g>
		<path class="st1" d="M324.2,143.3c-0.4,0-0.8-0.2-1.1-0.6l-1.5-2.5c-0.3-0.6-0.1-1.3,0.4-1.7c0.6-0.3,1.3-0.1,1.7,0.4l1.5,2.5
			c0.3,0.6,0.1,1.3-0.4,1.7C324.6,143.2,324.4,143.3,324.2,143.3z"/>
	</g>
	<g>
		<path class="st1" d="M322.8,144.5c-0.2,0-0.4-0.1-0.6-0.2l-2.5-1.5c-0.6-0.3-0.8-1.1-0.4-1.7c0.3-0.6,1.1-0.8,1.7-0.4l2.5,1.5
			c0.6,0.3,0.8,1.1,0.4,1.7C323.6,144.3,323.2,144.5,322.8,144.5z"/>
	</g>
	<g>
		<path class="st1" d="M322.2,146.3h-2.9c-0.7,0-1.2-0.5-1.2-1.2c0-0.7,0.5-1.2,1.2-1.2h2.9c0.7,0,1.2,0.5,1.2,1.2
			C323.4,145.8,322.8,146.3,322.2,146.3z"/>
	</g>
	<g>
		<path class="st1" d="M320,149.6c-0.4,0-0.8-0.2-1.1-0.6c-0.3-0.6-0.1-1.3,0.4-1.7l2.5-1.5c0.6-0.3,1.3-0.1,1.7,0.4
			c0.3,0.6,0.1,1.3-0.4,1.7l-2.5,1.5C320.4,149.5,320.2,149.6,320,149.6z"/>
	</g>
	<g>
		<path class="st1" d="M322.3,152.1c-0.2,0-0.4-0.1-0.6-0.2c-0.6-0.3-0.8-1.1-0.4-1.7l1.5-2.5c0.3-0.6,1.1-0.8,1.7-0.4
			c0.6,0.3,0.8,1.1,0.4,1.7l-1.5,2.5C323.1,151.9,322.7,152.1,322.3,152.1z"/>
	</g>
	<g>
		<path class="st1" d="M325.5,153.1c-0.7,0-1.2-0.5-1.2-1.2V149c0-0.7,0.5-1.2,1.2-1.2c0.7,0,1.2,0.5,1.2,1.2v2.9
			C326.7,152.6,326.2,153.1,325.5,153.1z"/>
	</g>
	<g>
		<path class="st1" d="M328.8,152.4c-0.4,0-0.8-0.2-1.1-0.6l-1.5-2.5c-0.3-0.6-0.1-1.3,0.4-1.7c0.6-0.3,1.3-0.1,1.7,0.4l1.5,2.5
			c0.3,0.6,0.1,1.3-0.4,1.7C329.2,152.3,329,152.4,328.8,152.4z"/>
	</g>
	<g>
		<path class="st1" d="M331.3,150.1c-0.2,0-0.4-0.1-0.6-0.2l-2.5-1.5c-0.6-0.3-0.8-1.1-0.4-1.7c0.3-0.6,1.1-0.8,1.7-0.4l2.5,1.5
			c0.6,0.3,0.8,1.1,0.4,1.7C332.1,149.8,331.7,150.1,331.3,150.1z"/>
	</g>
	<g>
		<path class="st1" d="M332.3,146.8h-2.9c-0.7,0-1.2-0.5-1.2-1.2c0-0.7,0.5-1.2,1.2-1.2h2.9c0.7,0,1.2,0.5,1.2,1.2
			C333.5,146.3,333,146.8,332.3,146.8z"/>
	</g>
	<g>
		<path class="st1" d="M329.1,145c-0.4,0-0.8-0.2-1.1-0.6c-0.3-0.6-0.1-1.3,0.4-1.7l2.5-1.5c0.6-0.3,1.3-0.1,1.7,0.4
			c0.3,0.6,0.1,1.3-0.4,1.7l-2.5,1.5C329.5,144.9,329.3,145,329.1,145z"/>
	</g>
	<g>
		<path class="st1" d="M327.8,143.6c-0.2,0-0.4-0.1-0.6-0.2c-0.6-0.3-0.8-1.1-0.4-1.7l1.5-2.5c0.3-0.6,1.1-0.8,1.7-0.4
			c0.6,0.3,0.8,1.1,0.4,1.7l-1.5,2.5C328.7,143.3,328.3,143.6,327.8,143.6z"/>
	</g>
</g>
<g>
	<g>
		<path class="st1" d="M61.4,277.2c-0.7,0-1.2-0.5-1.2-1.2v-2.9c0-0.7,0.5-1.2,1.2-1.2c0.7,0,1.2,0.5,1.2,1.2v2.9
			C62.7,276.6,62.1,277.2,61.4,277.2z"/>
	</g>
	<g>
		<path class="st1" d="M59.6,277.5c-0.4,0-0.8-0.2-1.1-0.6l-1.5-2.5c-0.3-0.6-0.1-1.3,0.4-1.7c0.6-0.3,1.3-0.1,1.7,0.4l1.5,2.5
			c0.3,0.6,0.1,1.3-0.4,1.7C60,277.5,59.8,277.5,59.6,277.5z"/>
	</g>
	<g>
		<path class="st1" d="M58.2,278.8c-0.2,0-0.4-0.1-0.6-0.2l-2.5-1.5c-0.6-0.3-0.8-1.1-0.4-1.7c0.3-0.6,1.1-0.8,1.7-0.4l2.5,1.5
			c0.6,0.3,0.8,1.1,0.4,1.7C59,278.5,58.6,278.8,58.2,278.8z"/>
	</g>
	<g>
		<path class="st1" d="M57.6,280.5h-2.9c-0.7,0-1.2-0.5-1.2-1.2c0-0.7,0.5-1.2,1.2-1.2h2.9c0.7,0,1.2,0.5,1.2,1.2
			C58.8,280,58.2,280.5,57.6,280.5z"/>
	</g>
	<g>
		<path class="st1" d="M55.4,283.8c-0.4,0-0.8-0.2-1.1-0.6c-0.3-0.6-0.1-1.3,0.4-1.7l2.5-1.5c0.6-0.3,1.3-0.1,1.7,0.4
			c0.3,0.6,0.1,1.3-0.4,1.7l-2.5,1.5C55.8,283.8,55.6,283.8,55.4,283.8z"/>
	</g>
	<g>
		<path class="st1" d="M57.7,286.3c-0.2,0-0.4-0.1-0.6-0.2c-0.6-0.3-0.8-1.1-0.4-1.7l1.5-2.5c0.3-0.6,1.1-0.8,1.7-0.4
			c0.6,0.3,0.8,1.1,0.4,1.7l-1.5,2.5C58.5,286.1,58.1,286.3,57.7,286.3z"/>
	</g>
	<g>
		<path class="st1" d="M60.9,287.3c-0.7,0-1.2-0.5-1.2-1.2v-2.9c0-0.7,0.5-1.2,1.2-1.2c0.7,0,1.2,0.5,1.2,1.2v2.9
			C62.1,286.8,61.6,287.3,60.9,287.3z"/>
	</g>
	<g>
		<path class="st1" d="M64.2,286.6c-0.4,0-0.8-0.2-1.1-0.6l-1.5-2.5c-0.3-0.6-0.1-1.3,0.4-1.7c0.6-0.3,1.3-0.1,1.7,0.4l1.5,2.5
			c0.3,0.6,0.1,1.3-0.4,1.7C64.6,286.5,64.4,286.6,64.2,286.6z"/>
	</g>
	<g>
		<path class="st1" d="M66.7,284.3c-0.2,0-0.4-0.1-0.6-0.2l-2.5-1.5c-0.6-0.3-0.8-1.1-0.4-1.7c0.3-0.6,1.1-0.8,1.7-0.4l2.5,1.5
			c0.6,0.3,0.8,1.1,0.4,1.7C67.5,284.1,67.1,284.3,66.7,284.3z"/>
	</g>
	<g>
		<path class="st1" d="M67.7,281.1h-2.9c-0.7,0-1.2-0.5-1.2-1.2c0-0.7,0.5-1.2,1.2-1.2h2.9c0.7,0,1.2,0.5,1.2,1.2
			C68.9,280.5,68.4,281.1,67.7,281.1z"/>
	</g>
	<g>
		<path class="st1" d="M64.5,279.2c-0.4,0-0.8-0.2-1.1-0.6c-0.3-0.6-0.1-1.3,0.4-1.7l2.5-1.5c0.6-0.3,1.3-0.1,1.7,0.4
			c0.3,0.6,0.1,1.3-0.4,1.7l-2.5,1.5C64.9,279.2,64.7,279.2,64.5,279.2z"/>
	</g>
	<g>
		<path class="st1" d="M63.2,277.8c-0.2,0-0.4-0.1-0.6-0.2c-0.6-0.3-0.8-1.1-0.4-1.7l1.5-2.5c0.3-0.6,1.1-0.8,1.7-0.4
			c0.6,0.3,0.8,1.1,0.4,1.7l-1.5,2.5C64.1,277.6,63.6,277.8,63.2,277.8z"/>
	</g>
</g>
<g>
	<g>
		<path class="st1" d="M197.3,135.9c-0.7,0-1.2-0.5-1.2-1.2v-2.9c0-0.7,0.5-1.2,1.2-1.2c0.7,0,1.2,0.5,1.2,1.2v2.9
			C198.5,135.4,198,135.9,197.3,135.9z"/>
	</g>
	<g>
		<path class="st1" d="M195.4,136.3c-0.4,0-0.8-0.2-1.1-0.6l-1.5-2.5c-0.3-0.6-0.1-1.3,0.4-1.7c0.6-0.3,1.3-0.1,1.7,0.4l1.5,2.5
			c0.3,0.6,0.1,1.3-0.4,1.7C195.9,136.2,195.7,136.3,195.4,136.3z"/>
	</g>
	<g>
		<path class="st1" d="M194,137.5c-0.2,0-0.4-0.1-0.6-0.2l-2.5-1.5c-0.6-0.3-0.8-1.1-0.4-1.7c0.3-0.6,1.1-0.8,1.7-0.4l2.5,1.5
			c0.6,0.3,0.8,1.1,0.4,1.7C194.9,137.3,194.4,137.5,194,137.5z"/>
	</g>
	<g>
		<path class="st1" d="M193.4,139.3h-2.9c-0.7,0-1.2-0.5-1.2-1.2c0-0.7,0.5-1.2,1.2-1.2h2.9c0.7,0,1.2,0.5,1.2,1.2
			C194.6,138.7,194.1,139.3,193.4,139.3z"/>
	</g>
	<g>
		<path class="st1" d="M191.2,142.6c-0.4,0-0.8-0.2-1.1-0.6c-0.3-0.6-0.1-1.3,0.4-1.7l2.5-1.5c0.6-0.3,1.3-0.1,1.7,0.4
			c0.3,0.6,0.1,1.3-0.4,1.7l-2.5,1.5C191.7,142.5,191.4,142.6,191.2,142.6z"/>
	</g>
	<g>
		<path class="st1" d="M193.5,145.1c-0.2,0-0.4-0.1-0.6-0.2c-0.6-0.3-0.8-1.1-0.4-1.7l1.5-2.5c0.3-0.6,1.1-0.8,1.7-0.4
			c0.6,0.3,0.8,1.1,0.4,1.7l-1.5,2.5C194.4,144.9,194,145.1,193.5,145.1z"/>
	</g>
	<g>
		<path class="st1" d="M196.8,146.1c-0.7,0-1.2-0.5-1.2-1.2V142c0-0.7,0.5-1.2,1.2-1.2c0.7,0,1.2,0.5,1.2,1.2v2.9
			C198,145.5,197.4,146.1,196.8,146.1z"/>
	</g>
	<g>
		<path class="st1" d="M200.1,145.3c-0.4,0-0.8-0.2-1.1-0.6l-1.5-2.5c-0.3-0.6-0.1-1.3,0.4-1.7c0.6-0.3,1.3-0.1,1.7,0.4l1.5,2.5
			c0.3,0.6,0.1,1.3-0.4,1.7C200.5,145.3,200.3,145.3,200.1,145.3z"/>
	</g>
	<g>
		<path class="st1" d="M202.6,143.1c-0.2,0-0.4-0.1-0.6-0.2l-2.5-1.5c-0.6-0.3-0.8-1.1-0.4-1.7c0.3-0.6,1.1-0.8,1.7-0.4l2.5,1.5
			c0.6,0.3,0.8,1.1,0.4,1.7C203.4,142.8,203,143.1,202.6,143.1z"/>
	</g>
	<g>
		<path class="st1" d="M203.6,139.8h-2.9c-0.7,0-1.2-0.5-1.2-1.2c0-0.7,0.5-1.2,1.2-1.2h2.9c0.7,0,1.2,0.5,1.2,1.2
			C204.8,139.3,204.2,139.8,203.6,139.8z"/>
	</g>
	<g>
		<path class="st1" d="M200.3,138c-0.4,0-0.8-0.2-1.1-0.6c-0.3-0.6-0.1-1.3,0.4-1.7l2.5-1.5c0.6-0.3,1.3-0.1,1.7,0.4
			c0.3,0.6,0.1,1.3-0.4,1.7l-2.5,1.5C200.7,137.9,200.5,138,200.3,138z"/>
	</g>
	<g>
		<path class="st1" d="M199.1,136.5c-0.2,0-0.4-0.1-0.6-0.2c-0.6-0.3-0.8-1.1-0.4-1.7l1.5-2.5c0.3-0.6,1.1-0.8,1.7-0.4
			c0.6,0.3,0.8,1.1,0.4,1.7l-1.5,2.5C199.9,136.3,199.5,136.5,199.1,136.5z"/>
	</g>
</g>
</svg>
